<svg width="125" height="125" viewBox="0 0 125 125" fill="none" xmlns="http://www.w3.org/2000/svg">
<mask id="mask0_3421_8133" style="mask-type:alpha" maskUnits="userSpaceOnUse" x="0" y="0" width="125" height="125">
<rect width="125" height="125" fill="#D9D9D9"/>
</mask>
<g mask="url(#mask0_3421_8133)">
<path d="M30.2097 89.0475C35.4111 85.4624 40.586 82.6834 45.7344 80.7103C50.8829 78.7363 56.4719 77.7493 62.5014 77.7493C68.5309 77.7493 74.1333 78.7363 79.3087 80.7103C84.4831 82.6834 89.6711 85.4624 94.8725 89.0475C98.6589 84.6612 101.472 80.0306 103.311 75.1556C105.151 70.2814 106.07 65.0631 106.07 59.5006C106.07 47.2142 101.881 36.8808 93.5014 28.5006C85.1212 20.1213 74.7878 15.9316 62.5014 15.9316C50.2149 15.9316 39.8816 20.1213 31.5014 28.5006C23.122 36.8808 18.9324 47.2142 18.9324 59.5006C18.9324 65.0631 19.8655 70.2814 21.7318 75.1556C23.5982 80.0306 26.4241 84.6612 30.2097 89.0475ZM50.6576 57.6621C47.4623 54.4677 45.8647 50.5197 45.8647 45.8183C45.8647 41.1178 47.4623 37.1699 50.6576 33.9746C53.8529 30.7793 57.8008 29.1816 62.5014 29.1816C67.2019 29.1816 71.1498 30.7793 74.3451 33.9746C77.5404 37.1699 79.1381 41.1178 79.1381 45.8183C79.1381 50.5197 77.5404 54.4677 74.3451 57.6621C71.1498 60.8574 67.2019 62.4551 62.5014 62.4551C57.8008 62.4551 53.8529 60.8574 50.6576 57.6621ZM62.5014 108.98C55.6837 108.98 49.2735 107.688 43.2709 105.103C37.2674 102.519 32.0174 98.9785 27.5209 94.4811C23.0235 89.9846 19.4827 84.7346 16.8985 78.7311C14.3143 72.7285 13.0222 66.3183 13.0222 59.5006C13.0222 52.63 14.3143 46.2064 16.8985 40.2298C19.4827 34.2532 23.0235 29.0167 27.5209 24.5202C32.0174 20.0228 37.2674 16.482 43.2709 13.8978C49.2735 11.3136 55.6837 10.0215 62.5014 10.0215C69.372 10.0215 75.7956 11.3136 81.7722 13.8978C87.7488 16.482 92.9853 20.0228 97.4818 24.5202C101.979 29.0167 105.52 34.2532 108.104 40.2298C110.688 46.2064 111.981 52.63 111.981 59.5006C111.981 66.3183 110.688 72.7285 108.104 78.7311C105.52 84.7346 101.979 89.9846 97.4818 94.4811C92.9853 98.9785 87.7488 102.519 81.7722 105.103C75.7956 107.688 69.372 108.98 62.5014 108.98ZM76.8243 100.761C81.5317 99.222 85.9653 96.7333 90.1251 93.2949C85.9653 90.2367 81.56 87.8661 76.9089 86.1829C72.2587 84.5006 67.4562 83.6595 62.5014 83.6595C57.5465 83.6595 52.7353 84.4924 48.0678 86.1582C43.4002 87.824 39.02 90.2029 34.9272 93.2949C39.0539 96.7333 43.471 99.222 48.1785 100.761C52.8859 102.3 57.6602 103.07 62.5014 103.07C67.3425 103.07 72.1168 102.3 76.8243 100.761ZM70.2032 53.5215C72.2206 51.505 73.2292 48.9373 73.2292 45.8183C73.2292 42.7003 72.2206 40.133 70.2032 38.1165C68.1867 36.1 65.6194 35.0918 62.5014 35.0918C59.3833 35.0918 56.816 36.1 54.7995 38.1165C52.7822 40.133 51.7735 42.7003 51.7735 45.8183C51.7735 48.9373 52.7822 51.505 54.7995 53.5215C56.816 55.538 59.3833 56.5462 62.5014 56.5462C65.6194 56.5462 68.1867 55.538 70.2032 53.5215Z" fill="#299261"/>
</g>
</svg>
