<svg width="35" height="35" viewBox="0 0 35 35" fill="none" xmlns="http://www.w3.org/2000/svg">
<mask id="mask0_3421_4960" style="mask-type:alpha" maskUnits="userSpaceOnUse" x="0" y="0" width="35" height="35">
<rect width="35" height="35" fill="#D9D9D9"/>
</mask>
<g mask="url(#mask0_3421_4960)">
<path d="M21.565 29.2213C22.8897 28.7717 24.0989 28.1215 25.1926 27.2708C24.0502 26.4687 22.8289 25.8185 21.5285 25.3203C20.2282 24.822 18.8853 24.5729 17.4999 24.5729C16.1145 24.5729 14.7716 24.822 13.4713 25.3203C12.1709 25.8185 10.9496 26.4687 9.80719 27.2708C10.9009 28.1215 12.1101 28.7717 13.4348 29.2213C14.7595 29.671 16.1145 29.8958 17.4999 29.8958C18.8853 29.8958 20.2404 29.671 21.565 29.2213ZM21.0364 10.0625C21.9357 10.9618 22.4279 12.0312 22.5129 13.2708C22.598 14.5104 22.2516 15.6406 21.4739 16.6614C21.2308 16.9774 20.9331 17.184 20.5806 17.2812C20.2282 17.3784 19.9062 17.3177 19.6145 17.0989C19.3714 16.9045 19.256 16.6493 19.2681 16.3333C19.2803 16.0173 19.3957 15.7378 19.6145 15.4948C20.1249 14.9357 20.368 14.2795 20.3437 13.526C20.3193 12.7725 20.0398 12.1284 19.5051 11.5937C18.9704 11.059 18.3263 10.7795 17.5728 10.7552C16.8193 10.7309 16.1631 10.9618 15.6041 11.4479C15.361 11.6423 15.0937 11.7335 14.802 11.7213C14.5103 11.7092 14.2794 11.5694 14.1093 11.302C13.9148 10.9861 13.8784 10.6519 13.9999 10.2994C14.1214 9.94701 14.3402 9.66142 14.6562 9.44267C15.6527 8.73781 16.7525 8.45222 17.9556 8.5859C19.1588 8.71958 20.1857 9.21177 21.0364 10.0625ZM17.4999 32.0833C15.4825 32.0833 13.5867 31.7005 11.8124 30.9349C10.0381 30.1692 8.49469 29.1302 7.18219 27.8177C5.86969 26.5052 4.83063 24.9618 4.06501 23.1875C3.29938 21.4132 2.91657 19.5173 2.91657 17.5C2.91657 15.9444 3.15355 14.4314 3.62751 12.9609C4.10146 11.4904 4.80025 10.1354 5.72386 8.89579L1.71344 4.84892C1.49469 4.63017 1.39139 4.36888 1.40355 4.06506C1.4157 3.76124 1.53115 3.49996 1.7499 3.28121C1.96865 3.06246 2.22994 2.95308 2.53376 2.95308C2.83758 2.95308 3.09886 3.06246 3.31761 3.28121L31.1718 31.1718C31.3905 31.3906 31.4938 31.6519 31.4817 31.9557C31.4695 32.2595 31.3541 32.5208 31.1353 32.7395C30.9166 32.9583 30.6614 33.0677 30.3697 33.0677C30.078 33.0677 29.8228 32.9583 29.6041 32.7395L7.25511 10.427C6.52594 11.4722 5.98514 12.5963 5.63271 13.7994C5.28028 15.0026 5.10407 16.2361 5.10407 17.5C5.10407 19.0069 5.36535 20.4592 5.88792 21.8567C6.41049 23.2543 7.14574 24.5364 8.09365 25.7031C9.50337 24.7309 10.9982 23.9349 12.578 23.3151C14.1579 22.6953 15.7985 22.3854 17.4999 22.3854C18.618 22.3854 19.7056 22.5191 20.7629 22.7864C21.8202 23.0538 22.8593 23.4305 23.8801 23.9166L27.7812 27.8177C26.3957 29.2031 24.822 30.2604 23.0598 30.9895C21.2976 31.7187 19.4443 32.0833 17.4999 32.0833ZM10.0259 4.95829C11.1683 4.27774 12.3714 3.76732 13.6353 3.42704C14.8992 3.08676 16.1874 2.91663 17.4999 2.91663C19.4443 2.91663 21.3037 3.28121 23.078 4.01038C24.8523 4.73954 26.4322 5.79683 27.8176 7.18225C29.203 8.56767 30.2603 10.1475 30.9895 11.9218C31.7187 13.6961 32.0832 15.5555 32.0832 17.5C32.0832 18.8125 31.9192 20.0885 31.591 21.3281C31.2629 22.5677 30.7829 23.7586 30.1509 24.901C30.0051 25.1684 29.7864 25.3324 29.4947 25.3932C29.203 25.454 28.9235 25.3993 28.6562 25.2291C28.3888 25.059 28.2308 24.822 28.1822 24.5182C28.1336 24.2144 28.1822 23.9288 28.328 23.6614C28.8384 22.7135 29.2273 21.7231 29.4947 20.6901C29.7621 19.6571 29.8957 18.5937 29.8957 17.5C29.8957 14.0486 28.6926 11.1198 26.2864 8.7135C23.8801 6.30725 20.9513 5.10413 17.4999 5.10413C16.4062 5.10413 15.3367 5.23781 14.2916 5.50517C13.2464 5.77253 12.2499 6.17357 11.302 6.70829C11.0346 6.85413 10.7612 6.90274 10.4817 6.85413C10.2022 6.80552 9.96518 6.65968 9.77074 6.41663C9.57629 6.17357 9.50337 5.90621 9.55199 5.61454C9.6006 5.32288 9.75858 5.10413 10.0259 4.95829Z" fill="white"/>
</g>
</svg>
