<svg width="35" height="35" viewBox="0 0 35 35" fill="none" xmlns="http://www.w3.org/2000/svg">
<mask id="mask0_3421_4943" style="mask-type:alpha" maskUnits="userSpaceOnUse" x="0" y="0" width="35" height="35">
<rect width="35" height="35" fill="#D9D9D9"/>
</mask>
<g mask="url(#mask0_3421_4943)">
<path d="M8.45874 24.9336C9.91513 23.9297 11.3641 23.1516 12.8057 22.5991C14.2472 22.0464 15.8121 21.7701 17.5004 21.7701C19.1887 21.7701 20.7573 22.0464 22.2064 22.5991C23.6553 23.1516 25.1079 23.9297 26.5643 24.9336C27.6245 23.7054 28.4121 22.4088 28.9272 21.0438C29.4422 19.6791 29.6997 18.2179 29.6997 16.6604C29.6997 13.2202 28.5266 10.3269 26.1804 7.98044C23.8339 5.63422 20.9406 4.46112 17.5004 4.46112C14.0602 4.46112 11.1669 5.63422 8.82041 7.98044C6.47419 10.3269 5.30108 13.2202 5.30108 16.6604C5.30108 18.2179 5.56237 19.6791 6.08494 21.0438C6.60751 22.4088 7.39877 23.7054 8.45874 24.9336ZM14.1842 16.1456C13.2895 15.2512 12.8421 14.1458 12.8421 12.8294C12.8421 11.5132 13.2895 10.4078 14.1842 9.51315C15.0788 8.61846 16.1843 8.17112 17.5004 8.17112C18.8165 8.17112 19.922 8.61846 20.8167 9.51315C21.7113 10.4078 22.1587 11.5132 22.1587 12.8294C22.1587 14.1458 21.7113 15.2512 20.8167 16.1456C19.922 17.0403 18.8165 17.4877 17.5004 17.4877C16.1843 17.4877 15.0788 17.0403 14.1842 16.1456ZM17.5004 30.5146C15.5914 30.5146 13.7966 30.1528 12.1159 29.4292C10.4349 28.7057 8.9649 27.7142 7.70587 26.455C6.4466 25.1959 5.45518 23.7259 4.7316 22.045C4.00803 20.3642 3.64624 18.5694 3.64624 16.6604C3.64624 14.7367 4.00803 12.938 4.7316 11.2646C5.45518 9.59117 6.4466 8.12493 7.70587 6.86591C8.9649 5.60664 10.4349 4.61522 12.1159 3.89164C13.7966 3.16806 15.5914 2.80627 17.5004 2.80627C19.4242 2.80627 21.2228 3.16806 22.8962 3.89164C24.5697 4.61522 26.0359 5.60664 27.2949 6.86591C28.5542 8.12493 29.5456 9.59117 30.2692 11.2646C30.9928 12.938 31.3546 14.7367 31.3546 16.6604C31.3546 18.5694 30.9928 20.3642 30.2692 22.045C29.5456 23.7259 28.5542 25.1959 27.2949 26.455C26.0359 27.7142 24.5697 28.7057 22.8962 29.4292C21.2228 30.1528 19.4242 30.5146 17.5004 30.5146ZM21.5108 28.2134C22.8289 27.7824 24.0703 27.0856 25.235 26.1228C24.0703 25.2665 22.8368 24.6028 21.5345 24.1315C20.2325 23.6604 18.8878 23.4249 17.5004 23.4249C16.113 23.4249 14.7659 23.6581 13.459 24.1245C12.1521 24.591 10.9256 25.2571 9.77962 26.1228C10.9351 27.0856 12.1719 27.7824 13.49 28.2134C14.8081 28.6443 16.1449 28.8598 17.5004 28.8598C18.8559 28.8598 20.1927 28.6443 21.5108 28.2134ZM19.6569 14.9863C20.2218 14.4217 20.5042 13.7027 20.5042 12.8294C20.5042 11.9563 20.2218 11.2375 19.6569 10.6729C19.0923 10.1083 18.3735 9.82596 17.5004 9.82596C16.6273 9.82596 15.9085 10.1083 15.3439 10.6729C14.779 11.2375 14.4966 11.9563 14.4966 12.8294C14.4966 13.7027 14.779 14.4217 15.3439 14.9863C15.9085 15.5509 16.6273 15.8332 17.5004 15.8332C18.3735 15.8332 19.0923 15.5509 19.6569 14.9863Z" fill="white"/>
</g>
</svg>
