<svg width="35" height="35" viewBox="0 0 35 35" fill="none" xmlns="http://www.w3.org/2000/svg">
<mask id="mask0_3826_11154" style="mask-type:alpha" maskUnits="userSpaceOnUse" x="0" y="0" width="35" height="35">
<rect width="35" height="35" fill="white"/>
</mask>
<g mask="url(#mask0_3826_11154)">
<path d="M15.7865 19.2135H8.09379C7.61376 19.2135 7.20822 19.0473 6.87718 18.7148C6.54589 18.3825 6.38025 17.9754 6.38025 17.4934C6.38025 17.0117 6.54589 16.6068 6.87718 16.2786C7.20822 15.9505 7.61376 15.7865 8.09379 15.7865H15.7865V8.09375C15.7865 7.61372 15.9527 7.20198 16.2852 6.85854C16.6175 6.51535 17.0246 6.34375 17.5066 6.34375C17.9883 6.34375 18.3933 6.51535 18.7214 6.85854C19.0495 7.20198 19.2136 7.61372 19.2136 8.09375V15.7865H26.9063C27.3863 15.7865 27.7981 15.9527 28.1415 16.2852C28.4847 16.6175 28.6563 17.0246 28.6563 17.5066C28.6563 17.9883 28.4847 18.3932 28.1415 18.7214C27.7981 19.0495 27.3863 19.2135 26.9063 19.2135H19.2136V26.9063C19.2136 27.3863 19.0473 27.7918 18.7148 28.1229C18.3826 28.4541 17.9755 28.6198 17.4935 28.6198C17.0117 28.6198 16.6068 28.4541 16.2787 28.1229C15.9506 27.7918 15.7865 27.3863 15.7865 26.9063V19.2135Z" fill="white"/>
</g>
</svg>
