<svg width="35" height="17" viewBox="0 0 35 17" fill="none" xmlns="http://www.w3.org/2000/svg">
<path d="M17.5 11.9345L4.64912 0.690744C4.1228 0.230247 3.47953 0 2.7193 0C1.95906 0 1.31579 0.230247 0.789474 0.690744C0.263157 1.15124 0 1.71407 0 2.37923C0 3.04439 0.263157 3.60722 0.789474 4.06772L14.2105 15.8104C14.6784 16.2197 15.1974 16.5203 15.7675 16.7122C16.3377 16.9041 16.9152 17 17.5 17C18.0848 17 18.6623 16.9041 19.2325 16.7122C19.8026 16.5203 20.3216 16.2197 20.7895 15.8104L34.2105 4.06772C34.7368 3.60722 35 3.04439 35 2.37923C35 1.71407 34.7368 1.15124 34.2105 0.690744C33.6842 0.230247 33.0409 0 32.2807 0C31.5205 0 30.8772 0.230247 30.3509 0.690744L17.5 11.9345Z" fill="white"/>
</svg>
