<svg width="35" height="35" viewBox="0 0 35 35" fill="none" xmlns="http://www.w3.org/2000/svg">
<mask id="mask0_3826_11151" style="mask-type:alpha" maskUnits="userSpaceOnUse" x="0" y="0" width="35" height="35">
<rect width="35" height="35" fill="white"/>
</mask>
<g mask="url(#mask0_3826_11151)">
<path d="M11.6302 19.2135L15.9688 23.5521C16.2847 23.8923 16.4427 24.2995 16.4427 24.7734C16.4427 25.2474 16.2726 25.6423 15.9323 25.9583C15.592 26.2986 15.191 26.4627 14.7292 26.4505C14.2674 26.4384 13.8785 26.2743 13.5625 25.9583L6.30729 18.7396C5.96701 18.3993 5.79688 17.9861 5.79688 17.5C5.79688 17.0139 5.96701 16.6007 6.30729 16.2604L13.599 9.00519C13.9149 8.68922 14.3038 8.52516 14.7656 8.513C15.2274 8.50085 15.6285 8.65276 15.9688 8.96873C16.309 9.30901 16.4731 9.72221 16.4609 10.2083C16.4488 10.6944 16.2847 11.0955 15.9688 11.4114L11.6302 15.7864H28.2552C28.7413 15.7864 29.1484 15.9505 29.4766 16.2786C29.8047 16.6068 29.9688 17.0139 29.9688 17.5C29.9688 17.9861 29.8047 18.3932 29.4766 18.7213C29.1484 19.0495 28.7413 19.2135 28.2552 19.2135H11.6302Z" fill="white"/>
</g>
</svg>
