<svg width="35" height="35" viewBox="0 0 35 35" fill="none" xmlns="http://www.w3.org/2000/svg">
<mask id="mask0_3421_4937" style="mask-type:alpha" maskUnits="userSpaceOnUse" x="0" y="0" width="35" height="35">
<rect width="35" height="35" fill="#D9D9D9"/>
</mask>
<g mask="url(#mask0_3421_4937)">
<path d="M3.64587 28.3267C3.06254 28.3267 2.55212 28.108 2.11462 27.6705C1.67712 27.233 1.45837 26.7226 1.45837 26.1392V7.18091C1.45837 6.59757 1.67712 6.08716 2.11462 5.64966C2.55212 5.21216 3.06254 4.99341 3.64587 4.99341H31.3542C31.9558 4.99341 32.4708 5.21216 32.8993 5.64966C33.3276 6.08716 33.5417 6.59757 33.5417 7.18091V26.1392C33.5417 26.7226 33.3276 27.233 32.8993 27.6705C32.4708 28.108 31.9558 28.3267 31.3542 28.3267H3.64587ZM3.64587 26.1392H31.3542V7.18091H3.64587V26.1392ZM8.38546 18.7747H11.3021V20.233C11.3021 20.4962 11.3887 20.714 11.5617 20.8863C11.7345 21.0584 11.9533 21.1444 12.218 21.1444C12.4824 21.1444 12.6997 21.0584 12.8698 20.8863C13.04 20.714 13.125 20.4962 13.125 20.233V13.9986C13.125 13.4821 12.9504 13.0491 12.6011 12.6996C12.2516 12.3503 11.8186 12.1757 11.3021 12.1757H8.38546C7.86896 12.1757 7.43608 12.3503 7.08681 12.6996C6.7373 13.0491 6.56254 13.4821 6.56254 13.9986V20.233C6.56254 20.4962 6.64907 20.714 6.82212 20.8863C6.99494 21.0584 7.21369 21.1444 7.47837 21.1444C7.74282 21.1444 7.96011 21.0584 8.13025 20.8863C8.30039 20.714 8.38546 20.4962 8.38546 20.233V18.7747ZM8.38546 16.9517V13.9986H11.3021V16.9517H8.38546ZM18.4115 18.8476L16.8802 12.832C16.8316 12.6375 16.7302 12.4795 16.5758 12.358C16.4217 12.2365 16.2419 12.1757 16.0362 12.1757C15.7482 12.1757 15.5131 12.2972 15.3308 12.5403C15.1485 12.7833 15.0938 13.0385 15.1667 13.3059L17.1355 20.4153C17.1841 20.634 17.3056 20.8102 17.5 20.9439C17.6945 21.0776 17.9064 21.1444 18.1359 21.1444H18.6871C18.9166 21.1444 19.1224 21.0776 19.3047 20.9439C19.487 20.8102 19.6025 20.6462 19.6511 20.4517L21.8386 13.2695C21.9358 12.9936 21.8939 12.7423 21.7128 12.5155C21.532 12.289 21.299 12.1757 21.0139 12.1757C20.8102 12.1757 20.6294 12.2304 20.4714 12.3398C20.3134 12.4491 20.2101 12.601 20.1615 12.7955L18.4115 18.8476ZM26.6146 13.9986V20.233C26.6146 20.4962 26.7011 20.714 26.8742 20.8863C27.047 21.0584 27.2658 21.1444 27.5305 21.1444C27.7949 21.1444 28.0122 21.0584 28.1823 20.8863C28.3525 20.714 28.4375 20.4962 28.4375 20.233V13.0872C28.4375 12.8239 28.3515 12.6062 28.1794 12.4338C28.0071 12.2617 27.7893 12.1757 27.5261 12.1757H25.0105C24.7472 12.1757 24.5294 12.2622 24.3571 12.4353C24.185 12.6081 24.099 12.8268 24.099 13.0915C24.099 13.356 24.185 13.5733 24.3571 13.7434C24.5294 13.9135 24.7472 13.9986 25.0105 13.9986H26.6146Z" fill="white"/>
</g>
</svg>
