<svg width="125" height="125" viewBox="0 0 125 125" fill="none" xmlns="http://www.w3.org/2000/svg">
<mask id="mask0_3866_11186" style="mask-type:alpha" maskUnits="userSpaceOnUse" x="0" y="0" width="125" height="125">
<rect width="125" height="125" fill="#D9D9D9"/>
</mask>
<g mask="url(#mask0_3866_11186)">
<path d="M65.5599 87.3073C66.3846 86.4844 66.7969 85.4644 66.7969 84.2474C66.7969 83.0304 66.3854 82.0095 65.5625 81.1849C64.7396 80.3602 63.7196 79.9479 62.5026 79.9479C61.2856 79.9479 60.2648 80.3594 59.4401 81.1823C58.6155 82.0052 58.2031 83.0252 58.2031 84.2422C58.2031 85.4592 58.6146 86.48 59.4375 87.3047C60.2604 88.1293 61.2804 88.5417 62.4974 88.5417C63.7144 88.5417 64.7352 88.1302 65.5599 87.3073ZM65.6901 67.4961C66.428 66.7478 66.7969 65.8203 66.7969 64.7135V39.5833C66.7969 38.4766 66.4201 37.5486 65.6667 36.7995C64.9141 36.0512 63.9809 35.6771 62.8672 35.6771C61.7543 35.6771 60.829 36.0512 60.0911 36.7995C59.3533 37.5486 58.9844 38.4766 58.9844 39.5833V64.7135C58.9844 65.8203 59.3611 66.7478 60.1146 67.4961C60.8672 68.2452 61.8003 68.6198 62.9141 68.6198C64.0269 68.6198 64.9523 68.2452 65.6901 67.4961ZM45.0729 104.167H28.6458C26.4974 104.167 24.6584 103.401 23.1289 101.871C21.5985 100.342 20.8333 98.5026 20.8333 96.3542V80.0013L8.85417 67.9687C8.07292 67.1875 7.50868 66.3277 7.16146 65.3893C6.81424 64.4501 6.64062 63.4952 6.64062 62.5247C6.64062 61.5534 6.81424 60.5903 7.16146 59.6354C7.50868 58.6806 8.07292 57.8125 8.85417 57.0312L20.8333 44.9987V28.6458C20.8333 26.4974 21.5985 24.658 23.1289 23.1276C24.6584 21.5981 26.4974 20.8333 28.6458 20.8333H44.9987L57.0313 8.85417C57.8125 8.07292 58.7023 7.50868 59.7005 7.16146C60.6988 6.81424 61.684 6.64062 62.6563 6.64062C63.6276 6.64062 64.5833 6.84462 65.5234 7.25261C66.4627 7.65972 67.3212 8.23698 68.099 8.98437L79.9479 20.8333H96.3542C98.5026 20.8333 100.342 21.5981 101.872 23.1276C103.402 24.658 104.167 26.4974 104.167 28.6458V44.9987L116.146 57.0312C116.927 57.8125 117.491 58.6723 117.839 59.6107C118.186 60.5499 118.359 61.5048 118.359 62.4753C118.359 63.4466 118.186 64.4097 117.839 65.3646C117.491 66.3194 116.927 67.1875 116.146 67.9687L104.167 80.0013V96.3542C104.167 98.5026 103.402 100.342 101.872 101.871C100.342 103.401 98.5026 104.167 96.3542 104.167H79.9479L68.099 115.885C67.3212 116.591 66.4627 117.137 65.5234 117.522C64.5833 117.907 63.6276 118.099 62.6563 118.099C61.684 118.099 60.7222 117.907 59.7708 117.522C58.8186 117.137 57.9488 116.591 57.1615 115.885L45.0729 104.167ZM48.1771 96.3542L62.6302 110.286L76.6823 96.3542H96.3542V76.6927L110.547 62.5L96.3542 48.3073V28.6458H76.6927L62.6302 14.4531L48.3073 28.6458H28.6458V48.3073L14.4531 62.5L28.6458 76.6927V96.3542H48.1771Z" fill="#299261"/>
</g>
</svg>
