<svg width="125" height="125" viewBox="0 0 125 125" fill="none" xmlns="http://www.w3.org/2000/svg">
<mask id="mask0_3421_5004" style="mask-type:alpha" maskUnits="userSpaceOnUse" x="0" y="0" width="125" height="125">
<rect width="125" height="125" fill="#D9D9D9"/>
</mask>
<g mask="url(#mask0_3421_5004)">
<path d="M23.4375 114.583C21.3542 114.583 19.5312 113.801 17.9688 112.239C16.4063 110.676 15.625 108.854 15.625 106.77V26.041C15.625 23.9577 16.4063 22.1348 17.9688 20.5723C19.5312 19.0098 21.3542 18.2285 23.4375 18.2285H31.901V14.5827C31.901 13.4021 32.2917 12.4125 33.0729 11.6139C33.8542 10.8153 34.8533 10.416 36.0703 10.416C37.2873 10.416 38.3073 10.8153 39.1302 11.6139C39.9531 12.4125 40.3646 13.4021 40.3646 14.5827V18.2285H84.6354V14.5827C84.6354 13.4021 85.026 12.4125 85.8073 11.6139C86.5885 10.8153 87.5877 10.416 88.8047 10.416C90.0217 10.416 91.0417 10.8153 91.8646 11.6139C92.6875 12.4125 93.099 13.4021 93.099 14.5827V18.2285H101.563C103.646 18.2285 105.469 19.0098 107.031 20.5723C108.594 22.1348 109.375 23.9577 109.375 26.041V73.1764C109.375 74.2832 108.998 75.2107 108.245 75.959C107.492 76.7081 106.559 77.0827 105.445 77.0827C104.332 77.0827 103.407 76.7081 102.669 75.959C101.931 75.2107 101.563 74.2832 101.563 73.1764V50.7806H23.4375V106.77H66.0156C67.151 106.77 68.0859 107.147 68.8203 107.9C69.5547 108.653 69.9219 109.586 69.9219 110.7C69.9219 111.813 69.5477 112.738 68.7995 113.476C68.0504 114.214 67.1224 114.583 66.0156 114.583H23.4375ZM23.4375 42.9681H101.563V26.041H23.4375V42.9681ZM87.5 106.119L107.552 86.0671C108.333 85.2858 109.245 84.8952 110.286 84.8952C111.328 84.8952 112.24 85.288 113.021 86.0736C113.802 86.86 114.193 87.7932 114.193 88.873C114.193 89.9538 113.802 90.8848 113.021 91.666L90.2344 114.452C89.4705 115.234 88.5634 115.624 87.513 115.624C86.4627 115.624 85.5469 115.234 84.7656 114.452L73.3073 102.994C72.526 102.23 72.1354 101.323 72.1354 100.273C72.1354 99.2224 72.5282 98.3066 73.3138 97.5254C74.1003 96.7441 75.0334 96.3535 76.1133 96.3535C77.194 96.3535 78.125 96.7441 78.9063 97.5254L87.5 106.119Z" fill="#299261"/>
</g>
</svg>
