<svg width="35" height="35" viewBox="0 0 35 35" fill="none" xmlns="http://www.w3.org/2000/svg">
<mask id="mask0_3421_4903" style="mask-type:alpha" maskUnits="userSpaceOnUse" x="0" y="0" width="35" height="35">
<rect width="35" height="35" fill="#D9D9D9"/>
</mask>
<g mask="url(#mask0_3421_4903)">
<path d="M25.5208 27.7084H22.2396C21.9297 27.7084 21.67 27.6029 21.4605 27.3919C21.2507 27.1812 21.1458 26.9199 21.1458 26.608C21.1458 26.2964 21.2507 26.0373 21.4605 25.8307C21.67 25.6242 21.9297 25.5209 22.2396 25.5209H25.5208V22.2396C25.5208 21.9297 25.6263 21.6699 25.8373 21.4601C26.048 21.2506 26.3093 21.1459 26.6211 21.1459C26.9327 21.1459 27.1918 21.2506 27.3984 21.4601C27.605 21.6699 27.7083 21.9297 27.7083 22.2396V25.5209H30.9896C31.2995 25.5209 31.5593 25.6263 31.7691 25.8373C31.9786 26.048 32.0833 26.3093 32.0833 26.6212C32.0833 26.9328 31.9786 27.1919 31.7691 27.3985C31.5593 27.6051 31.2995 27.7084 30.9896 27.7084H27.7083V30.9896C27.7083 31.2995 27.6028 31.5592 27.3919 31.7687C27.1811 31.9785 26.9199 32.0834 26.608 32.0834C26.2964 32.0834 26.0373 31.9785 25.8307 31.7687C25.6241 31.5592 25.5208 31.2995 25.5208 30.9896V27.7084ZM6.5625 29.1667C5.97917 29.1667 5.46875 28.9479 5.03125 28.5104C4.59375 28.0729 4.375 27.5625 4.375 26.9792V7.29169C4.375 6.70835 4.59375 6.19794 5.03125 5.76044C5.46875 5.32294 5.97917 5.10419 6.5625 5.10419H8.93229V4.08335C8.93229 3.7528 9.04167 3.47572 9.26042 3.2521C9.47917 3.02849 9.75892 2.91669 10.0997 2.91669C10.4405 2.91669 10.726 3.02849 10.9565 3.2521C11.1869 3.47572 11.3021 3.7528 11.3021 4.08335V5.10419H20.7812V4.08335C20.7812 3.7528 20.8906 3.47572 21.1094 3.2521C21.3281 3.02849 21.6079 2.91669 21.9486 2.91669C22.2894 2.91669 22.575 3.02849 22.8054 3.2521C23.0358 3.47572 23.151 3.7528 23.151 4.08335V5.10419H25.5208C26.1042 5.10419 26.6146 5.32294 27.0521 5.76044C27.4896 6.19794 27.7083 6.70835 27.7083 7.29169V17.099C27.7083 17.4089 27.6028 17.6686 27.3919 17.8781C27.1811 18.0878 26.9199 18.1927 26.608 18.1927C26.2964 18.1927 26.0373 18.0878 25.8307 17.8781C25.6241 17.6686 25.5208 17.4089 25.5208 17.099V14.2188H6.5625V26.9792H17.1354C17.4453 26.9792 17.7051 27.0847 17.9149 27.2956C18.1244 27.5064 18.2292 27.7677 18.2292 28.0795C18.2292 28.3911 18.1244 28.6502 17.9149 28.8568C17.7051 29.0634 17.4453 29.1667 17.1354 29.1667H6.5625ZM6.5625 12.0313H25.5208V7.29169H6.5625V12.0313Z" fill="white"/>
</g>
</svg>
