<svg width="35" height="35" viewBox="0 0 35 35" fill="none" xmlns="http://www.w3.org/2000/svg">
<mask id="mask0_3421_4891" style="mask-type:alpha" maskUnits="userSpaceOnUse" x="0" y="0" width="35" height="35">
<rect width="35" height="35" fill="#D9D9D9"/>
</mask>
<g mask="url(#mask0_3421_4891)">
<path d="M6.5625 32.0834C5.97917 32.0834 5.46875 31.8646 5.03125 31.4271C4.59375 30.9896 4.375 30.4792 4.375 29.8959V7.29169C4.375 6.70835 4.59375 6.19794 5.03125 5.76044C5.46875 5.32294 5.97917 5.10419 6.5625 5.10419H8.93229V4.08335C8.93229 3.7528 9.04167 3.47572 9.26042 3.2521C9.47917 3.02849 9.75892 2.91669 10.0997 2.91669C10.4405 2.91669 10.726 3.02849 10.9565 3.2521C11.1869 3.47572 11.3021 3.7528 11.3021 4.08335V5.10419H23.6979V4.08335C23.6979 3.7528 23.8073 3.47572 24.026 3.2521C24.2448 3.02849 24.5245 2.91669 24.8653 2.91669C25.2061 2.91669 25.4917 3.02849 25.7221 3.2521C25.9525 3.47572 26.0677 3.7528 26.0677 4.08335V5.10419H28.4375C29.0208 5.10419 29.5312 5.32294 29.9688 5.76044C30.4062 6.19794 30.625 6.70835 30.625 7.29169V20.4896C30.625 20.7995 30.5195 21.0592 30.3085 21.2687C30.0978 21.4785 29.8365 21.5834 29.5247 21.5834C29.2131 21.5834 28.954 21.4785 28.7474 21.2687C28.5408 21.0592 28.4375 20.7995 28.4375 20.4896V14.2188H6.5625V29.8959H18.4844C18.8023 29.8959 19.0641 30.0013 19.2697 30.2123C19.4753 30.423 19.5781 30.6843 19.5781 30.9962C19.5781 31.3078 19.4734 31.5669 19.2639 31.7735C19.0541 31.9801 18.7943 32.0834 18.4844 32.0834H6.5625ZM6.5625 12.0313H28.4375V7.29169H6.5625V12.0313ZM24.5 29.7136L30.1146 24.099C30.3333 23.8802 30.5885 23.7709 30.8802 23.7709C31.1719 23.7709 31.4271 23.8808 31.6458 24.1008C31.8646 24.321 31.974 24.5823 31.974 24.8847C31.974 25.1873 31.8646 25.4479 31.6458 25.6667L25.2656 32.0469C25.0517 32.2656 24.7977 32.375 24.5036 32.375C24.2095 32.375 23.9531 32.2656 23.7344 32.0469L20.526 28.8386C20.3073 28.6247 20.1979 28.3707 20.1979 28.0766C20.1979 27.7825 20.3079 27.5261 20.5279 27.3073C20.7481 27.0886 21.0094 26.9792 21.3117 26.9792C21.6143 26.9792 21.875 27.0886 22.0938 27.3073L24.5 29.7136Z" fill="white"/>
</g>
</svg>
