<svg width="35" height="35" viewBox="0 0 35 35" fill="none" xmlns="http://www.w3.org/2000/svg">
<mask id="mask0_3421_4912" style="mask-type:alpha" maskUnits="userSpaceOnUse" x="0" y="0" width="35" height="35">
<rect width="35" height="35" fill="#D9D9D9"/>
</mask>
<g mask="url(#mask0_3421_4912)">
<path d="M8.96008 23.5519C9.52494 23.5519 9.99574 23.3605 10.3725 22.9777C10.7492 22.5949 10.9376 22.13 10.9376 21.5832C10.9376 21.0161 10.7462 20.534 10.3634 20.1369C9.98055 19.74 9.51571 19.5415 8.96883 19.5415C8.40178 19.5415 7.91968 19.7391 7.52253 20.1343C7.12562 20.5298 6.92717 21.0098 6.92717 21.5744C6.92717 22.1393 7.12477 22.6101 7.51998 22.9868C7.91543 23.3636 8.39546 23.5519 8.96008 23.5519ZM23.224 23.5519C23.7831 23.5519 24.251 23.3636 24.6277 22.9868C25.0044 22.6101 25.1928 22.1422 25.1928 21.5832C25.1928 21.4373 25.1746 21.2915 25.1381 21.1457C25.1016 20.9998 25.0591 20.8662 25.0105 20.7446C24.6216 20.696 24.257 20.5806 23.9167 20.3983C23.5765 20.216 23.2727 19.9912 23.0053 19.7238L22.823 19.578C22.3369 19.6752 21.9419 19.9122 21.6381 20.2889C21.3343 20.6656 21.1824 21.0971 21.1824 21.5832C21.1824 22.13 21.3808 22.5949 21.7777 22.9777C22.1749 23.3605 22.657 23.5519 23.224 23.5519ZM5.10425 25.3748V17.7186V20.7082V20.5988V25.3748ZM2.91675 18.0832C2.91675 17.9697 2.92282 17.8563 2.93498 17.743C2.94713 17.6295 2.97751 17.512 3.02612 17.3905L6.01571 8.38525C6.13723 8.04498 6.33776 7.77761 6.61727 7.58317C6.89678 7.38873 7.21883 7.2915 7.58342 7.2915H13.1251C13.435 7.2915 13.6948 7.39699 13.9046 7.60796C14.1141 7.81869 14.2188 8.07998 14.2188 8.39182C14.2188 8.70341 14.1141 8.96251 13.9046 9.16911C13.6948 9.3757 13.435 9.479 13.1251 9.479H7.948L5.94279 15.5311H18.7761C19.086 15.5311 19.3458 15.6366 19.5556 15.8475C19.7651 16.0583 19.8699 16.3196 19.8699 16.6314C19.8699 16.943 19.7651 17.2021 19.5556 17.4087C19.3458 17.6153 19.086 17.7186 18.7761 17.7186H5.10425V25.3748H26.9793V21.3644C26.9793 21.0545 27.0847 20.7947 27.2957 20.5849C27.5064 20.3754 27.7677 20.2707 28.0796 20.2707C28.3912 20.2707 28.6503 20.3754 28.8569 20.5849C29.0635 20.7947 29.1668 21.0545 29.1668 21.3644V29.1665C29.1668 29.5717 29.0241 29.916 28.7387 30.1994C28.4536 30.483 28.1073 30.6248 27.6997 30.6248C27.2923 30.6248 26.9489 30.483 26.6694 30.1994C26.3898 29.916 26.2501 29.5717 26.2501 29.1665V27.5623H5.83342V29.1665C5.83342 29.5717 5.69074 29.916 5.40539 30.1994C5.12029 30.483 4.77394 30.6248 4.36633 30.6248C3.95897 30.6248 3.61553 30.483 3.33602 30.1994C3.05651 29.916 2.91675 29.5717 2.91675 29.1665V18.0832ZM22.6589 8.0688C22.8655 7.85807 22.9688 7.59678 22.9688 7.28494C22.9688 6.97334 22.8633 6.71425 22.6524 6.50765C22.4416 6.30105 22.1804 6.19775 21.8685 6.19775C21.5569 6.19775 21.2978 6.30324 21.0912 6.51421C20.8846 6.72494 20.7813 6.98623 20.7813 7.29807C20.7813 7.60966 20.8868 7.86876 21.0978 8.07536C21.3085 8.28195 21.5698 8.38525 21.8816 8.38525C22.1932 8.38525 22.4523 8.27977 22.6589 8.0688ZM24.5365 18.1925L16.8803 10.5363C16.7398 10.3917 16.6257 10.2153 16.5379 10.0073C16.4502 9.79923 16.4063 9.58668 16.4063 9.36963V3.46338C16.4063 3.02588 16.5704 2.64307 16.8985 2.31494C17.2266 1.98682 17.6095 1.82275 18.047 1.82275H23.9532C24.1703 1.82275 24.3828 1.86662 24.5909 1.95437C24.7989 2.04211 24.9753 2.15623 25.1199 2.29671L32.7761 9.95296C33.0921 10.2629 33.2501 10.6502 33.2501 11.1149C33.2501 11.5799 33.0921 11.9703 32.7761 12.2863L26.8699 18.1925C26.56 18.5085 26.1727 18.6665 25.7079 18.6665C25.243 18.6665 24.8525 18.5085 24.5365 18.1925ZM25.7032 16.2603L30.8438 11.1196L23.7345 4.01025H18.5938V9.15088L25.7032 16.2603Z" fill="white"/>
</g>
</svg>
