<svg width="35" height="35" viewBox="0 0 35 35" fill="none" xmlns="http://www.w3.org/2000/svg">
<mask id="mask0_3421_4921" style="mask-type:alpha" maskUnits="userSpaceOnUse" x="0" y="0" width="35" height="35">
<rect width="35" height="35" fill="#D9D9D9"/>
</mask>
<g mask="url(#mask0_3421_4921)">
<path d="M10.3542 23.5519C10.9212 23.5519 11.4033 23.3605 11.8005 22.9777C12.1974 22.5949 12.3958 22.13 12.3958 21.5832C12.3958 21.0161 12.1982 20.534 11.803 20.1369C11.4076 19.74 10.9275 19.5415 10.3629 19.5415C9.79806 19.5415 9.32726 19.7391 8.95052 20.1343C8.57378 20.5298 8.38542 21.0098 8.38542 21.5744C8.38542 22.1393 8.57682 22.6101 8.95964 22.9868C9.34245 23.3636 9.80729 23.5519 10.3542 23.5519ZM24.6094 23.5519C25.1764 23.5519 25.6585 23.3605 26.0557 22.9777C26.4526 22.5949 26.651 22.13 26.651 21.5832C26.651 21.0161 26.4534 20.534 26.0582 20.1369C25.6628 19.74 25.1827 19.5415 24.6181 19.5415C24.0533 19.5415 23.5825 19.7391 23.2057 20.1343C22.829 20.5298 22.6406 21.0098 22.6406 21.5744C22.6406 22.1393 22.832 22.6101 23.2148 22.9868C23.5977 23.3636 24.0625 23.5519 24.6094 23.5519ZM5.46875 30.6248C5.15885 30.6248 4.89915 30.52 4.68964 30.3102C4.47988 30.1007 4.375 29.841 4.375 29.5311V17.8644C4.375 17.7509 4.38108 17.6375 4.39323 17.5243C4.40538 17.4108 4.43576 17.2932 4.48438 17.1717L7.36714 8.76041C7.51127 8.31586 7.7717 7.95991 8.14844 7.69255C8.52517 7.42518 8.94444 7.2915 9.40625 7.2915H20.0521C20.362 7.2915 20.6218 7.39699 20.8316 7.60796C21.0411 7.81869 21.1458 8.07998 21.1458 8.39182C21.1458 8.70341 21.0411 8.96251 20.8316 9.16911C20.6218 9.3757 20.362 9.479 20.0521 9.479H9.40625L7.40104 15.5311H20.0521C20.362 15.5311 20.6218 15.6366 20.8316 15.8475C21.0411 16.0583 21.1458 16.3196 21.1458 16.6314C21.1458 16.943 21.0411 17.2021 20.8316 17.4087C20.6218 17.6153 20.362 17.7186 20.0521 17.7186H6.5625V25.3748H28.4375V18.8123C28.4375 18.5024 28.543 18.2426 28.754 18.0329C28.9647 17.8233 29.226 17.7186 29.5378 17.7186C29.8494 17.7186 30.1085 17.8233 30.3151 18.0329C30.5217 18.2426 30.625 18.5024 30.625 18.8123V29.5311C30.625 29.841 30.5202 30.1007 30.3107 30.3102C30.101 30.52 29.8411 30.6248 29.5312 30.6248H28.8385C28.5184 30.6248 28.25 30.52 28.0332 30.3102C27.8166 30.1007 27.7083 29.841 27.7083 29.5311V27.5623H7.29167V29.5311C7.29167 29.841 7.18691 30.1007 6.9774 30.3102C6.76764 30.52 6.50781 30.6248 6.19792 30.6248H5.46875ZM24.5729 14.5832C24.2326 14.5832 23.941 14.4616 23.6979 14.2186C23.4549 13.9755 23.3333 13.6839 23.3333 13.3436V8.53109C23.3333 8.19081 23.4549 7.89914 23.6979 7.65609C23.941 7.41303 24.2326 7.2915 24.5729 7.2915H24.7917V5.83317C24.7917 5.03109 25.0773 4.34446 25.6484 3.77327C26.2196 3.20209 26.9062 2.9165 27.7083 2.9165C28.5104 2.9165 29.197 3.20209 29.7682 3.77327C30.3394 4.34446 30.625 5.03109 30.625 5.83317V7.2915H30.8437C31.184 7.2915 31.4757 7.41303 31.7187 7.65609C31.9618 7.89914 32.0833 8.19081 32.0833 8.53109V13.3436C32.0833 13.6839 31.9618 13.9755 31.7187 14.2186C31.4757 14.4616 31.184 14.5832 30.8437 14.5832H24.5729ZM26.25 7.2915H29.1667V5.83317C29.1667 5.41998 29.0269 5.07362 28.7474 4.79411C28.4679 4.51459 28.1215 4.37484 27.7083 4.37484C27.2951 4.37484 26.9488 4.50754 26.6693 4.77296C26.3898 5.03862 26.25 5.36772 26.25 5.76025V7.2915Z" fill="white"/>
</g>
</svg>
