<svg width="125" height="125" viewBox="0 0 125 125" fill="none" xmlns="http://www.w3.org/2000/svg">
<mask id="mask0_3421_6928" style="mask-type:alpha" maskUnits="userSpaceOnUse" x="0" y="0" width="125" height="125">
<rect width="125" height="125" fill="#D9D9D9"/>
</mask>
<g mask="url(#mask0_3421_6928)">
<path d="M32.0001 84.1139C34.0174 84.1139 35.6989 83.4303 37.0444 82.0631C38.3898 80.696 39.0626 79.0358 39.0626 77.0827C39.0626 75.0575 38.379 73.3357 37.0118 71.9173C35.6446 70.4998 33.9845 69.791 32.0313 69.791C30.0062 69.791 28.2844 70.4967 26.866 71.9082C25.4484 73.3205 24.7397 75.0349 24.7397 77.0514C24.7397 79.0688 25.4454 80.7502 26.8569 82.0957C28.2692 83.4412 29.9836 84.1139 32.0001 84.1139ZM82.9428 84.1139C84.9393 84.1139 86.6103 83.4412 87.9558 82.0957C89.3013 80.7502 89.9741 79.0792 89.9741 77.0827C89.9741 76.5618 89.9089 76.041 89.7787 75.5202C89.6485 74.9993 89.4966 74.5219 89.323 74.0879C87.9341 73.9143 86.632 73.502 85.4168 72.8509C84.2015 72.1999 83.1164 71.3969 82.1616 70.4421L81.5105 69.9212C79.7744 70.2684 78.3638 71.1148 77.2787 72.4603C76.1937 73.8058 75.6511 75.3466 75.6511 77.0827C75.6511 79.0358 76.3599 80.696 77.7774 82.0631C79.1958 83.4303 80.9176 84.1139 82.9428 84.1139ZM18.2292 90.6243V63.2806V73.9577V73.5671V90.6243ZM10.4167 64.5827C10.4167 64.1773 10.4384 63.7724 10.4819 63.3678C10.5253 62.9625 10.6338 62.5427 10.8074 62.1087L21.4845 29.9473C21.9185 28.732 22.6346 27.7771 23.6329 27.0827C24.6312 26.3882 25.7813 26.041 27.0834 26.041H46.8751C47.9819 26.041 48.9098 26.4177 49.6589 27.1712C50.4072 27.9238 50.7813 28.857 50.7813 29.9707C50.7813 31.0835 50.4072 32.0089 49.6589 32.7467C48.9098 33.4846 47.9819 33.8535 46.8751 33.8535H28.3855L21.224 55.4681H67.0574C68.1642 55.4681 69.0921 55.8448 69.8412 56.5983C70.5895 57.3509 70.9636 58.2841 70.9636 59.3978C70.9636 60.5106 70.5895 61.436 69.8412 62.1738C69.0921 62.9117 68.1642 63.2806 67.0574 63.2806H18.2292V90.6243H96.3543V76.3014C96.3543 75.1947 96.731 74.2667 97.4845 73.5176C98.2371 72.7693 99.1702 72.3952 100.284 72.3952C101.397 72.3952 102.322 72.7693 103.06 73.5176C103.798 74.2667 104.167 75.1947 104.167 76.3014V104.166C104.167 105.613 103.657 106.843 102.638 107.855C101.62 108.868 100.383 109.374 98.9272 109.374C97.4723 109.374 96.2458 108.868 95.2475 107.855C94.2492 106.843 93.7501 105.613 93.7501 104.166V98.4368H20.8334V104.166C20.8334 105.613 20.3239 106.843 19.3048 107.855C18.2865 108.868 17.0496 109.374 15.5938 109.374C14.139 109.374 12.9124 108.868 11.9141 107.855C10.9159 106.843 10.4167 105.613 10.4167 104.166V64.5827ZM80.9246 28.8171C81.6624 28.0645 82.0313 27.1313 82.0313 26.0176C82.0313 24.9047 81.6546 23.9794 80.9011 23.2415C80.1485 22.5037 79.2154 22.1348 78.1017 22.1348C76.9888 22.1348 76.0635 22.5115 75.3256 23.265C74.5878 24.0176 74.2188 24.9507 74.2188 26.0645C74.2188 27.1773 74.5956 28.1026 75.349 28.8405C76.1017 29.5783 77.0348 29.9473 78.1485 29.9473C79.2614 29.9473 80.1867 29.5705 80.9246 28.8171ZM87.6303 64.9733L60.2865 37.6296C59.7848 37.1131 59.3773 36.4833 59.0639 35.7402C58.7505 34.9972 58.5938 34.2381 58.5938 33.4629V12.3691C58.5938 10.8066 59.1798 9.43945 60.3517 8.26758C61.5235 7.0957 62.8907 6.50977 64.4532 6.50977H85.547C86.3221 6.50977 87.0813 6.66645 87.8243 6.97982C88.5674 7.29318 89.1971 7.70074 89.7136 8.20247L117.057 35.5462C118.186 36.653 118.75 38.0362 118.75 39.696C118.75 41.3566 118.186 42.7511 117.057 43.8796L95.9636 64.9733C94.8569 66.1018 93.4736 66.666 91.8139 66.666C90.1533 66.666 88.7588 66.1018 87.6303 64.9733ZM91.797 58.0723L110.156 39.7129L84.7657 14.3223H66.4063V32.6816L91.797 58.0723Z" fill="#299261"/>
</g>
</svg>
