<svg width="35" height="35" viewBox="0 0 35 35" fill="none" xmlns="http://www.w3.org/2000/svg">
<mask id="mask0_3850_11162" style="mask-type:alpha" maskUnits="userSpaceOnUse" x="0" y="0" width="35" height="35">
<rect width="35" height="35" fill="white"/>
</mask>
<g mask="url(#mask0_3850_11162)">
<path d="M17.5 19.5417L10.3542 26.6875C10.0868 26.9549 9.74657 27.0886 9.33337 27.0886C8.92018 27.0886 8.5799 26.9549 8.31254 26.6875C8.04518 26.4202 7.9115 26.0799 7.9115 25.6667C7.9115 25.2535 8.04518 24.9132 8.31254 24.6459L15.4584 17.5L8.31254 10.3542C8.04518 10.0868 7.9115 9.74657 7.9115 9.33337C7.9115 8.92018 8.04518 8.5799 8.31254 8.31254C8.5799 8.04518 8.92018 7.9115 9.33337 7.9115C9.74657 7.9115 10.0868 8.04518 10.3542 8.31254L17.5 15.4584L24.6459 8.31254C24.9132 8.04518 25.2535 7.9115 25.6667 7.9115C26.0799 7.9115 26.4202 8.04518 26.6875 8.31254C26.9549 8.5799 27.0886 8.92018 27.0886 9.33337C27.0886 9.74657 26.9549 10.0868 26.6875 10.3542L19.5417 17.5L26.6875 24.6459C26.9549 24.9132 27.0886 25.2535 27.0886 25.6667C27.0886 26.0799 26.9549 26.4202 26.6875 26.6875C26.4202 26.9549 26.0799 27.0886 25.6667 27.0886C25.2535 27.0886 24.9132 26.9549 24.6459 26.6875L17.5 19.5417Z" fill="white"/>
</g>
</svg>
