<svg width="48" height="54" viewBox="0 0 48 54" fill="none" xmlns="http://www.w3.org/2000/svg">
<path d="M48 0.00330895V54L15.3555 53.9681C6.875 53.9681 0 48.0903 0 40.8389V13.1292C0 5.87775 6.875 0 15.3555 0L48 0.00330895Z" fill="white"/>
<path d="M34.1964 31.3333V22.6667C34.1964 22.3533 34.0427 22.1407 33.7353 22.0288C33.4275 21.9171 33.1546 21.9724 32.9165 22.1946L28.8094 26.0279C28.5118 26.3057 28.3629 26.6297 28.3629 27C28.3629 27.3703 28.5118 27.6943 28.8094 27.9721L32.9165 31.8054C33.1546 32.0276 33.4275 32.0829 33.7353 31.9713C34.0427 31.8593 34.1964 31.6467 34.1964 31.3333ZM12.9763 42C12.1579 42 11.4571 41.7281 10.8741 41.1842C10.2914 40.64 10 39.986 10 39.2221V14.7779C10 14.014 10.2914 13.36 10.8741 12.8158C11.4571 12.2719 12.1579 12 12.9763 12H39.1665C39.985 12 40.6857 12.2719 41.2687 12.8158C41.8515 13.36 42.1429 14.014 42.1429 14.7779V39.2221C42.1429 39.986 41.8515 40.64 41.2687 41.1842C40.6857 41.7281 39.985 42 39.1665 42H12.9763ZM22.1129 39.2221H39.1665V14.7779H22.1129V39.2221Z" fill="#232B3A"/>
</svg>
