<svg width="100%" height="100%" viewBox="0 0 300 148" fill="none" xmlns="http://www.w3.org/2000/svg">
<g id="ConfyAside">
<path id="Vector" d="M299.999 34.7018V0H251.498V18.4151C251.498 26.9407 244.559 33.8537 236 33.8537H79.2116C70.6524 33.8537 63.7136 26.9414 63.7136 18.4151V0H0V19.247C0 27.7727 6.93879 34.6843 15.498 34.6843H47.3752C55.9344 34.6843 62.8732 41.5959 62.8732 50.1229V81.8754C62.8732 90.4011 69.8126 97.314 78.3725 97.314H236.839C245.398 97.314 252.338 90.4017 252.338 81.8754V50.1229C252.338 41.7305 259.065 34.9159 267.44 34.705H299.769C299.846 34.705 299.923 34.7037 299.999 34.7018Z" fill="white"/>
<g id="cerrar">
<path id="Vector_2" d="M300 94.0033V148L267.355 147.968C258.875 147.968 252 142.09 252 134.839V107.129C252 99.8777 258.875 94 267.355 94L300 94.0033Z" fill="white"/>
<path id="left_panel_close" d="M286.196 125.333V116.667C286.196 116.353 286.043 116.141 285.735 116.029C285.428 115.917 285.155 115.972 284.917 116.195L280.809 120.028C280.512 120.306 280.363 120.63 280.363 121C280.363 121.37 280.512 121.694 280.809 121.972L284.917 125.805C285.155 126.028 285.428 126.083 285.735 125.971C286.043 125.859 286.196 125.647 286.196 125.333ZM264.976 136C264.158 136 263.457 135.728 262.874 135.184C262.291 134.64 262 133.986 262 133.222V108.778C262 108.014 262.291 107.36 262.874 106.816C263.457 106.272 264.158 106 264.976 106H291.167C291.985 106 292.686 106.272 293.269 106.816C293.851 107.36 294.143 108.014 294.143 108.778V133.222C294.143 133.986 293.851 134.64 293.269 135.184C292.686 135.728 291.985 136 291.167 136H264.976ZM274.113 133.222H291.167V108.778H274.113V133.222Z" fill="#232B3A"/>
</g>
<path id="Vector_3" d="M148.632 77.0198C147.027 77.0198 145.624 76.6815 144.425 76.0048C143.226 75.3288 142.296 74.3753 141.635 73.1461C140.973 71.917 140.642 70.4672 140.642 68.7976C140.642 67.1292 140.968 65.6794 141.621 64.4497C142.273 63.2205 143.199 62.267 144.398 61.5909C145.598 60.9149 147.009 60.5759 148.631 60.5759C150.571 60.5759 152.189 61.0546 153.485 62.0121C154.782 62.9695 155.633 64.3442 156.039 66.1362H153.05C152.749 65.1179 152.234 64.3662 151.502 63.883C150.77 63.4004 149.813 63.1578 148.632 63.1578C147.062 63.1578 145.831 63.6507 144.942 64.634C144.051 65.6173 143.606 67.0056 143.606 68.7969C143.606 70.5714 144.051 71.9551 144.942 72.9475C145.831 73.9399 147.062 74.4361 148.632 74.4361C151.084 74.4361 152.59 73.3557 153.156 71.195H156.145C155.756 73.075 154.911 74.5156 153.605 75.5171C152.299 76.5185 150.642 77.0192 148.632 77.0192V77.0198Z" fill="#232B3A"/>
<path id="Vector_4" d="M165.761 74.4374C167.401 74.4374 168.675 73.9412 169.584 72.9488C170.492 71.9564 170.945 70.5727 170.945 68.7982C170.945 67.0069 170.492 65.6186 169.584 64.6353C168.675 63.652 167.401 63.1597 165.761 63.1597C164.139 63.1597 162.868 63.6559 161.952 64.6483C161.034 65.6406 160.576 67.0244 160.576 68.7982C160.576 70.5727 161.034 71.9564 161.952 72.9488C162.869 73.9412 164.139 74.4374 165.761 74.4374ZM165.761 77.0198C164.12 77.0198 162.688 76.6815 161.462 76.0048C160.236 75.3288 159.288 74.3753 158.618 73.1461C157.949 71.917 157.613 70.4672 157.613 68.7976C157.613 67.1292 157.948 65.6794 158.618 64.4497C159.288 63.2205 160.236 62.267 161.462 61.5909C162.688 60.9149 164.12 60.5759 165.761 60.5759C167.454 60.5759 168.905 60.9097 170.112 61.5773C171.321 62.2456 172.255 63.1933 172.917 64.4231C173.578 65.6536 173.909 67.1117 173.909 68.7976C173.909 70.4672 173.578 71.9202 172.917 73.1597C172.255 74.3973 171.317 75.3514 170.1 76.0178C168.883 76.686 167.436 77.0198 165.761 77.0198Z" fill="#232B3A"/>
<path id="Vector_5" d="M176.268 76.704V63.9501H174.734V60.8934H177.909V63.3174H179.019C179.566 62.4389 180.315 61.7674 181.269 61.301C182.221 60.8358 183.34 60.6023 184.629 60.6023C186.675 60.6023 188.288 61.1878 189.471 62.3548C190.652 63.5238 191.242 65.0815 191.242 67.032V76.7033H188.28V67.5333C188.28 66.1095 187.896 65.0298 187.129 64.2916C186.362 63.5542 185.237 63.1854 183.757 63.1854C182.293 63.1854 181.172 63.5542 180.397 64.2916C179.621 65.0304 179.233 66.1101 179.233 67.5333V76.7033H176.269L176.268 76.704Z" fill="#232B3A"/>
<path id="Vector_6" d="M195.732 76.7038V63.1587H192.504V60.8933H195.758V57.9343C195.758 57.0389 196.005 56.3707 196.499 55.9314C196.992 55.4922 197.671 55.2722 198.536 55.2722H202.928V57.5384H198.668V60.8926H202.611V63.1581H198.695V76.7032H195.732V76.7038Z" fill="#232B3A"/>
<path id="Vector_7" d="M206.063 83.0285V80.6828H209.898L211.539 76.7567L204.423 60.8931H207.492L212.941 73.2517H213.074L218.258 60.8931H221.168L214.395 76.7037L212.809 80.4189C212.455 81.2269 212.107 81.8641 211.763 82.3299C211.419 82.795 210.815 83.0285 209.952 83.0285H206.063H206.063Z" fill="#232B3A"/>
<path id="Vector_8" fill-rule="evenodd" clip-rule="evenodd" d="M100.015 50.5822C97.1003 51.0247 94.1485 53.9177 93.6711 56.8236C92.4709 64.7153 92.4709 72.6058 93.6711 80.4975C94.1485 83.4034 97.097 86.2964 100.015 86.7389C108.463 87.9266 116.911 87.9266 125.363 86.7389C128.277 86.2964 131.229 83.4034 131.707 80.4975C132.907 72.6058 132.907 64.7153 131.707 56.8236C131.229 53.9177 128.277 51.0247 125.363 50.5822C121.137 49.989 116.913 49.6914 112.687 49.6914C108.464 49.6914 104.24 49.989 100.015 50.5822ZM98.5706 75.7316V61.5946C98.5706 60.8313 99.1935 60.2109 99.9598 60.2109H102.815C103.582 60.2109 104.204 59.5905 104.204 58.8271V55.9826C104.204 55.2193 104.827 54.6002 105.593 54.6002H119.786C120.552 54.6002 121.174 55.2193 121.174 55.9826V58.8271C121.174 59.5905 121.796 60.2109 122.563 60.2109H125.419C126.185 60.2109 126.804 60.8313 126.804 61.5946V64.5122C126.804 65.2756 126.185 65.8921 125.419 65.8921H122.486C121.719 65.8921 121.1 65.2756 121.1 64.5122V61.6684C121.1 60.9037 120.477 60.2846 119.711 60.2846H105.667C104.901 60.2846 104.278 60.9037 104.278 61.6684V75.6566C104.278 76.4213 104.901 77.0365 105.667 77.0365H119.711C120.477 77.0365 121.1 76.4206 121.1 75.6566V72.8128C121.1 72.0494 121.719 71.429 122.486 71.429H125.419C126.185 71.429 126.804 72.0494 126.804 72.8128V75.7316C126.804 76.495 126.185 77.1141 125.419 77.1141H122.563C121.796 77.1141 121.174 77.7306 121.174 78.494V81.3378C121.174 82.1025 120.552 82.7215 119.786 82.7215H105.593C104.827 82.7215 104.204 82.1025 104.204 81.3378V78.494C104.204 77.7306 103.582 77.1141 102.815 77.1141H99.9598C99.1935 77.1141 98.5706 76.495 98.5706 75.7316Z" fill="#232B3A"/>
</g>
</svg>
