<svg width="35" height="35" viewBox="0 0 35 35" fill="none" xmlns="http://www.w3.org/2000/svg">
<mask id="mask0_3562_9235" style="mask-type:alpha" maskUnits="userSpaceOnUse" x="0" y="0" width="35" height="35">
<rect width="35" height="35" fill="#232B3A"/>
</mask>
<g mask="url(#mask0_3562_9235)">
<path d="M30.0417 32.0834L26.1042 28.1459C25.5694 28.4618 25.0104 28.711 24.4271 28.8933C23.8438 29.0756 23.2361 29.1667 22.6042 29.1667C20.7812 29.1667 19.2318 28.5287 17.9557 27.2526C16.6797 25.9766 16.0417 24.4271 16.0417 22.6042C16.0417 20.7813 16.6797 19.2318 17.9557 17.9558C19.2318 16.6797 20.7812 16.0417 22.6042 16.0417C24.4271 16.0417 25.9766 16.6797 27.2526 17.9558C28.5286 19.2318 29.1667 20.7813 29.1667 22.6042C29.1667 23.2362 29.0755 23.8438 28.8932 24.4271C28.7109 25.0105 28.4618 25.5695 28.1458 26.1042L32.0833 30.0417L30.0417 32.0834ZM25.1927 25.1927C25.8976 24.4879 26.25 23.625 26.25 22.6042C26.25 21.5834 25.8976 20.7205 25.1927 20.0157C24.4878 19.3108 23.625 18.9584 22.6042 18.9584C21.5833 18.9584 20.7205 19.3108 20.0156 20.0157C19.3108 20.7205 18.9583 21.5834 18.9583 22.6042C18.9583 23.625 19.3108 24.4879 20.0156 25.1927C20.7205 25.8976 21.5833 26.25 22.6042 26.25C23.625 26.25 24.4878 25.8976 25.1927 25.1927ZM30.625 14.5834H27.7083V7.29171H24.7917V11.6667H10.2083V7.29171H7.29167V27.7084H14.5833V30.625H7.29167C6.48958 30.625 5.80295 30.3395 5.23177 29.7683C4.66059 29.1971 4.375 28.5105 4.375 27.7084V7.29171C4.375 6.48962 4.66059 5.80299 5.23177 5.23181C5.80295 4.66063 6.48958 4.37504 7.29167 4.37504H13.3802C13.6476 3.52435 14.1701 2.82556 14.9479 2.27869C15.7257 1.73181 16.5764 1.45837 17.5 1.45837C18.4722 1.45837 19.3411 1.73181 20.1068 2.27869C20.8724 2.82556 21.3889 3.52435 21.6563 4.37504H27.7083C28.5104 4.37504 29.1971 4.66063 29.7682 5.23181C30.3394 5.80299 30.625 6.48962 30.625 7.29171V14.5834ZM18.5391 6.87244C18.8186 6.59292 18.9583 6.24657 18.9583 5.83337C18.9583 5.42018 18.8186 5.07383 18.5391 4.79431C18.2596 4.5148 17.9132 4.37504 17.5 4.37504C17.0868 4.37504 16.7405 4.5148 16.4609 4.79431C16.1814 5.07383 16.0417 5.42018 16.0417 5.83337C16.0417 6.24657 16.1814 6.59292 16.4609 6.87244C16.7405 7.15195 17.0868 7.29171 17.5 7.29171C17.9132 7.29171 18.2596 7.15195 18.5391 6.87244Z" fill="white"/>
</g>
</svg>
