<svg width="35" height="35" viewBox="0 0 35 35" fill="none" xmlns="http://www.w3.org/2000/svg">
<mask id="mask0_3421_4888" style="mask-type:alpha" maskUnits="userSpaceOnUse" x="0" y="0" width="35" height="35">
<rect width="35" height="35" fill="#D9D9D9"/>
</mask>
<g mask="url(#mask0_3421_4888)">
<path d="M8.20312 32.0834C7.13976 32.0834 6.23596 31.7111 5.49172 30.9666C4.74724 30.2224 4.375 29.3186 4.375 28.2552V25.5209C4.375 24.9193 4.58925 24.4043 5.01776 23.9757C5.44602 23.5475 5.96094 23.3334 6.5625 23.3334H8.75V5.10419C8.75 4.50262 8.96425 3.98759 9.39276 3.55908C9.82102 3.13082 10.3359 2.91669 10.9375 2.91669H28.4375C29.0391 2.91669 29.5541 3.13082 29.9826 3.55908C30.4109 3.98759 30.625 4.50262 30.625 5.10419V28.2552C30.625 29.3186 30.2529 30.2224 29.5086 30.9666C28.7642 31.7111 27.8602 32.0834 26.7969 32.0834H8.20312ZM26.7936 29.8959C27.2576 29.8959 27.6476 29.7386 27.9635 29.4241C28.2795 29.1096 28.4375 28.7199 28.4375 28.2552V5.10419H10.9375V23.3334H22.9688C23.5703 23.3334 24.0853 23.5475 24.5139 23.9757C24.9421 24.4043 25.1562 24.9193 25.1562 25.5209V28.2552C25.1562 28.7199 25.3131 29.1096 25.6269 29.4241C25.9407 29.7386 26.3296 29.8959 26.7936 29.8959ZM14.2188 11.6667C13.9089 11.6667 13.6491 11.5612 13.4396 11.3502C13.2299 11.1395 13.125 10.8782 13.125 10.5664C13.125 10.2548 13.2299 9.99568 13.4396 9.78908C13.6491 9.58249 13.9089 9.47919 14.2188 9.47919H25.1562C25.4661 9.47919 25.726 9.58467 25.9357 9.79564C26.1452 10.0064 26.25 10.2677 26.25 10.5795C26.25 10.8911 26.1452 11.1502 25.9357 11.3568C25.726 11.5634 25.4661 11.6667 25.1562 11.6667H14.2188ZM14.2188 16.0417C13.9089 16.0417 13.6491 15.9362 13.4396 15.7252C13.2299 15.5145 13.125 15.2532 13.125 14.9414C13.125 14.6298 13.2299 14.3707 13.4396 14.1641C13.6491 13.9575 13.9089 13.8542 14.2188 13.8542H25.1562C25.4661 13.8542 25.726 13.9597 25.9357 14.1706C26.1452 14.3814 26.25 14.6427 26.25 14.9545C26.25 15.2661 26.1452 15.5252 25.9357 15.7318C25.726 15.9384 25.4661 16.0417 25.1562 16.0417H14.2188ZM8.16667 29.8959H22.9688V25.5209H6.5625V28.2552C6.5625 28.7199 6.72049 29.1096 7.03646 29.4241C7.35243 29.7386 7.72917 29.8959 8.16667 29.8959ZM8.16667 29.8959H6.5625H22.9688H8.16667Z" fill="white"/>
</g>
</svg>
