<svg width="35" height="35" viewBox="0 0 35 35" fill="none" xmlns="http://www.w3.org/2000/svg">
<mask id="mask0_3846_11144" style="mask-type:alpha" maskUnits="userSpaceOnUse" x="0" y="0" width="35" height="35">
<rect width="35" height="35" fill="white"/>
</mask>
<g mask="url(#mask0_3846_11144)">
<path d="M17.5 32.0833L17.1354 27.7083H16.7708C13.3194 27.7083 10.3906 26.5052 7.98438 24.0989C5.57813 21.6927 4.375 18.7638 4.375 15.3125C4.375 11.8611 5.57813 8.93225 7.98438 6.526C10.3906 4.11975 13.3194 2.91663 16.7708 2.91663C18.4965 2.91663 20.1068 3.23867 21.6016 3.88277C23.0964 4.52687 24.4089 5.41402 25.5391 6.54423C26.6693 7.67444 27.5564 8.98694 28.2005 10.4817C28.8446 11.9765 29.1667 13.5868 29.1667 15.3125C29.1667 17.1354 28.8689 18.8854 28.2734 20.5625C27.678 22.2395 26.8637 23.7951 25.8307 25.2291C24.7977 26.6632 23.5703 27.9635 22.1484 29.1302C20.7266 30.2968 19.1771 31.2812 17.5 32.0833ZM20.4167 26.7604C22.1424 25.302 23.546 23.5946 24.6276 21.638C25.7092 19.6814 26.25 17.5729 26.25 15.3125C26.25 12.6632 25.3325 10.421 23.4974 8.5859C21.6623 6.75083 19.4201 5.83329 16.7708 5.83329C14.1215 5.83329 11.8793 6.75083 10.0443 8.5859C8.2092 10.421 7.29167 12.6632 7.29167 15.3125C7.29167 17.9618 8.2092 20.204 10.0443 22.039C11.8793 23.8741 14.1215 24.7916 16.7708 24.7916H20.4167V26.7604ZM17.7917 22.8593C18.0833 22.5677 18.2292 22.2152 18.2292 21.802C18.2292 21.3888 18.0833 21.0364 17.7917 20.7448C17.5 20.4531 17.1476 20.3073 16.7344 20.3073C16.3212 20.3073 15.9687 20.4531 15.6771 20.7448C15.3854 21.0364 15.2396 21.3888 15.2396 21.802C15.2396 22.2152 15.3854 22.5677 15.6771 22.8593C15.9687 23.151 16.3212 23.2968 16.7344 23.2968C17.1476 23.2968 17.5 23.151 17.7917 22.8593ZM15.6771 18.6666H17.8646C17.8646 17.9375 17.9375 17.427 18.0833 17.1354C18.2292 16.8437 18.691 16.309 19.4687 15.5312C19.9062 15.0937 20.2708 14.6198 20.5625 14.1093C20.8542 13.5989 21 13.052 21 12.4687C21 11.2291 20.5807 10.2994 19.7422 9.67965C18.9036 9.05986 17.9132 8.74996 16.7708 8.74996C15.7014 8.74996 14.8021 9.0477 14.0729 9.64319C13.3437 10.2387 12.8333 10.9618 12.5417 11.8125L14.5833 12.6145C14.7049 12.2013 14.9358 11.7942 15.276 11.3932C15.6163 10.9921 16.1146 10.7916 16.7708 10.7916C17.4271 10.7916 17.9193 10.9739 18.2474 11.3385C18.5755 11.7031 18.7396 12.1041 18.7396 12.5416C18.7396 12.9548 18.6181 13.3255 18.375 13.6536C18.1319 13.9817 17.8403 14.3159 17.5 14.6562C16.6493 15.3854 16.1328 15.9626 15.9505 16.388C15.7682 16.8133 15.6771 17.5729 15.6771 18.6666Z" fill="white"/>
</g>
</svg>
