<svg width="125" height="125" viewBox="0 0 125 125" fill="none" xmlns="http://www.w3.org/2000/svg">
<mask id="mask0_3421_5010" style="mask-type:alpha" maskUnits="userSpaceOnUse" x="0" y="0" width="125" height="125">
<rect width="125" height="125" fill="#D9D9D9"/>
</mask>
<g mask="url(#mask0_3421_5010)">
<path d="M29.2969 114.583C25.4991 114.583 22.2713 113.253 19.6133 110.594C16.9544 107.936 15.625 104.709 15.625 100.911V91.1452C15.625 88.9967 16.3902 87.1573 17.9206 85.627C19.4501 84.0974 21.2891 83.3327 23.4375 83.3327H31.25V18.2285C31.25 16.0801 32.0152 14.2407 33.5456 12.7103C35.0751 11.1808 36.9141 10.416 39.0625 10.416H101.562C103.711 10.416 105.55 11.1808 107.081 12.7103C108.61 14.2407 109.375 16.0801 109.375 18.2285V100.911C109.375 104.709 108.046 107.936 105.388 110.594C102.729 113.253 99.5009 114.583 95.7031 114.583H29.2969ZM95.6914 106.77C97.3485 106.77 98.7413 106.209 99.8698 105.085C100.998 103.962 101.562 102.571 101.562 100.911V18.2285H39.0625V83.3327H82.0312C84.1797 83.3327 86.0191 84.0974 87.5495 85.627C89.079 87.1573 89.8438 88.9967 89.8438 91.1452V100.911C89.8438 102.571 90.4041 103.962 91.5247 105.085C92.6454 106.209 94.0343 106.77 95.6914 106.77ZM50.7812 41.666C49.6745 41.666 48.747 41.2893 47.9987 40.5358C47.2496 39.7832 46.875 38.85 46.875 37.7363C46.875 36.6235 47.2496 35.6981 47.9987 34.9603C48.747 34.2224 49.6745 33.8535 50.7812 33.8535H89.8438C90.9505 33.8535 91.8785 34.2302 92.6276 34.9837C93.3759 35.7363 93.75 36.6695 93.75 37.7832C93.75 38.896 93.3759 39.8214 92.6276 40.5592C91.8785 41.2971 90.9505 41.666 89.8438 41.666H50.7812ZM50.7812 57.291C49.6745 57.291 48.747 56.9143 47.9987 56.1608C47.2496 55.4082 46.875 54.475 46.875 53.3613C46.875 52.2485 47.2496 51.3231 47.9987 50.5853C48.747 49.8474 49.6745 49.4785 50.7812 49.4785H89.8438C90.9505 49.4785 91.8785 49.8552 92.6276 50.6087C93.3759 51.3613 93.75 52.2945 93.75 53.4082C93.75 54.521 93.3759 55.4464 92.6276 56.1842C91.8785 56.9221 90.9505 57.291 89.8438 57.291H50.7812ZM29.1667 106.77H82.0312V91.1452H23.4375V100.911C23.4375 102.571 24.0017 103.962 25.1302 105.085C26.2587 106.209 27.6042 106.77 29.1667 106.77ZM29.1667 106.77H23.4375H82.0312H29.1667Z" fill="#299261"/>
</g>
</svg>
