<svg width="125" height="125" viewBox="0 0 125 125" fill="none" xmlns="http://www.w3.org/2000/svg">
<mask id="mask0_3421_8125" style="mask-type:alpha" maskUnits="userSpaceOnUse" x="0" y="0" width="125" height="125">
<rect width="125" height="125" fill="#D9D9D9"/>
</mask>
<g mask="url(#mask0_3421_8125)">
<path d="M50.7812 30.8555H89.8437C90.9505 30.8555 91.8785 31.2322 92.6276 31.9857C93.3759 32.7383 93.75 33.6714 93.75 34.7852C93.75 35.898 93.3759 36.8233 92.6276 37.5612C91.8785 38.299 90.9505 38.668 89.8437 38.668H50.7812C49.6745 38.668 48.747 38.2912 47.9987 37.5378C47.2496 36.7852 46.875 35.852 46.875 34.7383C46.875 33.6254 47.2496 32.7001 47.9987 31.9622C48.747 31.2244 49.6745 30.8555 50.7812 30.8555ZM50.7812 46.4805H89.8437C90.9505 46.4805 91.8785 46.8572 92.6276 47.6107C93.3759 48.3633 93.75 49.2964 93.75 50.4102C93.75 51.523 93.3759 52.4483 92.6276 53.1862C91.8785 53.924 90.9505 54.293 89.8437 54.293H50.7812C49.6745 54.293 48.747 53.9162 47.9987 53.1628C47.2496 52.4102 46.875 51.477 46.875 50.3633C46.875 49.2504 47.2496 48.3251 47.9987 47.5872C48.747 46.8494 49.6745 46.4805 50.7812 46.4805ZM29.2969 111.585C25.4991 111.585 22.2713 110.255 19.6133 107.596C16.9544 104.938 15.625 101.71 15.625 97.9128V84.2409C15.625 83.1341 15.9996 82.2062 16.7487 81.457C17.497 80.7088 18.4245 80.3346 19.5312 80.3346H31.25V15.2305C31.25 13.082 32.0152 11.2426 33.5456 9.71224C35.0751 8.18272 36.9141 7.41797 39.0625 7.41797H101.562C103.711 7.41797 105.55 8.18272 107.081 9.71224C108.61 11.2426 109.375 13.082 109.375 15.2305V50.3867C109.375 51.4935 108.998 52.421 108.245 53.1693C107.492 53.9184 106.559 54.293 105.445 54.293C104.332 54.293 103.407 53.9184 102.669 53.1693C101.931 52.421 101.562 51.4935 101.562 50.3867V15.2305H39.0625V80.3346H61.1979C62.3047 80.3346 63.2326 80.7114 63.9818 81.4648C64.73 82.2174 65.1042 83.1506 65.1042 84.2643C65.1042 85.3772 64.73 86.3025 63.9818 87.0404C63.2326 87.7782 62.3047 88.1471 61.1979 88.1471H23.4375V97.9128C23.4375 99.5725 24.0017 100.964 25.1302 102.087C26.2587 103.211 27.6042 103.772 29.1667 103.772H61.1979C62.3047 103.772 63.2326 104.149 63.9818 104.902C64.73 105.655 65.1042 106.588 65.1042 107.702C65.1042 108.815 64.73 109.74 63.9818 110.478C63.2326 111.216 62.3047 111.585 61.1979 111.585H29.2969ZM72.9167 107.678V97.1315C72.9167 96.648 73.0035 96.1801 73.1771 95.7279C73.3507 95.2747 73.6545 94.8312 74.0885 94.3971L101.642 66.9531C102.433 66.1615 103.312 65.5894 104.279 65.237C105.246 64.8854 106.207 64.7096 107.161 64.7096C108.203 64.7096 109.201 64.9049 110.156 65.2956C111.111 65.6862 111.979 66.2721 112.76 67.0534L117.578 71.8711C118.359 72.6523 118.924 73.5204 119.271 74.4753C119.618 75.4301 119.792 76.385 119.792 77.3398C119.792 78.2947 119.596 79.2713 119.206 80.2695C118.815 81.2678 118.226 82.1628 117.437 82.9544L90.1042 110.413C89.6701 110.847 89.2266 111.151 88.7734 111.324C88.3212 111.498 87.8533 111.585 87.3698 111.585H76.8229C75.7161 111.585 74.7886 111.21 74.0404 110.461C73.2912 109.713 72.9167 108.785 72.9167 107.678ZM80.7292 103.772H85.6771L101.432 87.8867L99.0885 85.4128L96.6146 83.069L80.7292 98.8242V103.772ZM99.0885 85.4128L96.6146 83.069L101.432 87.8867L99.0885 85.4128Z" fill="#299261"/>
</g>
</svg>
