<svg width="35" height="35" viewBox="0 0 35 35" fill="none" xmlns="http://www.w3.org/2000/svg">

<g>
<path d="M22.0574 29.3855L21.474 29.6771C21.2067 29.7987 20.9332 29.8169 20.6537 29.7318C20.3742 29.6467 20.1494 29.4827 19.9792 29.2396L19.8334 29.0209C19.6633 28.7535 19.6025 28.4801 19.6511 28.2006C19.6997 27.921 19.8456 27.6841 20.0886 27.4896L20.6355 27.0521C20.4897 26.566 20.4167 26.0617 20.4167 25.5391C20.4167 25.0165 20.4897 24.5122 20.6355 24.0261L20.0886 23.5886C19.8456 23.3941 19.6997 23.1511 19.6511 22.8594C19.6025 22.5677 19.6633 22.2882 19.8334 22.0209L19.9792 21.8021C20.1494 21.5348 20.3742 21.3646 20.6537 21.2917C20.9332 21.2188 21.2067 21.2431 21.474 21.3646L22.0574 21.6563C22.4706 21.316 22.902 21.0122 23.3516 20.7448C23.8013 20.4775 24.2813 20.2709 24.7917 20.125L24.9011 19.323C24.9497 19.0556 25.0713 18.8247 25.2657 18.6302C25.4601 18.4358 25.6911 18.3386 25.9584 18.3386H26.2136C26.481 18.3386 26.718 18.4297 26.9246 18.612C27.1312 18.7943 27.2588 19.0191 27.3074 19.2865L27.3803 20.125C27.8907 20.2709 28.3707 20.4775 28.8204 20.7448C29.27 21.0122 29.7015 21.316 30.1147 21.6563L30.7345 21.3646C31.0018 21.2431 31.2753 21.2188 31.5548 21.2917C31.8343 21.3646 32.0591 21.5348 32.2292 21.8021L32.3751 22.0209C32.5452 22.2882 32.5999 22.5677 32.5391 22.8594C32.4784 23.1511 32.3265 23.3941 32.0834 23.5886L31.5365 24.0261C31.6824 24.5122 31.7553 25.0165 31.7553 25.5391C31.7553 26.0617 31.6824 26.566 31.5365 27.0521L32.1199 27.4896C32.3629 27.6841 32.5088 27.921 32.5574 28.2006C32.606 28.4801 32.5452 28.7535 32.3751 29.0209L32.2292 29.2396C32.0591 29.4827 31.8343 29.6467 31.5548 29.7318C31.2753 29.8169 31.0018 29.7987 30.7345 29.6771L30.1147 29.3855C29.7258 29.75 29.3004 30.066 28.8386 30.3334C28.3768 30.6007 27.8907 30.8073 27.3803 30.9532L27.3074 31.7552C27.2588 32.0226 27.1312 32.2474 26.9246 32.4297C26.718 32.612 26.481 32.7032 26.2136 32.7032H25.9584C25.6911 32.7032 25.4601 32.6059 25.2657 32.4115C25.0713 32.2171 24.9497 31.9862 24.9011 31.7188L24.7917 30.9532C24.2813 30.8073 23.7952 30.6007 23.3334 30.3334C22.8716 30.066 22.4463 29.75 22.0574 29.3855ZM28.6928 28.1459C29.422 27.4167 29.7865 26.5417 29.7865 25.5209C29.7865 24.5 29.422 23.625 28.6928 22.8959C27.9636 22.1667 27.0886 21.8021 26.0678 21.8021C25.047 21.8021 24.172 22.1667 23.4428 22.8959C22.7136 23.625 22.349 24.5 22.349 25.5209C22.349 26.5417 22.7136 27.4167 23.4428 28.1459C24.172 28.875 25.047 29.2396 26.0678 29.2396C27.0886 29.2396 27.9636 28.875 28.6928 28.1459ZM5.10425 26.9792V15.3125V16.0417V8.02087V26.9792ZM5.10425 11.9948H29.8959V8.02087H5.10425V11.9948ZM5.10425 29.1667C4.52091 29.1667 4.0105 28.948 3.573 28.5105C3.1355 28.073 2.91675 27.5625 2.91675 26.9792V8.02087C2.91675 7.43754 3.1355 6.92712 3.573 6.48962C4.0105 6.05212 4.52091 5.83337 5.10425 5.83337H29.8959C30.4792 5.83337 30.9897 6.05212 31.4272 6.48962C31.8647 6.92712 32.0834 7.43754 32.0834 8.02087V15.75C32.0834 16.0903 31.9437 16.3334 31.6641 16.4792C31.3846 16.625 31.099 16.6129 30.8074 16.4427C30.1025 16.0782 29.3551 15.7987 28.5652 15.6042C27.7753 15.4098 26.9549 15.3125 26.1042 15.3125C25.1806 15.3125 24.2813 15.4341 23.4063 15.6771C22.5313 15.9202 21.7171 16.2605 20.9636 16.698H5.10425V26.9792H15.4584C15.7744 26.9792 16.0357 27.0825 16.2423 27.2891C16.4489 27.4957 16.5522 27.757 16.5522 28.073C16.5522 28.3889 16.4489 28.6502 16.2423 28.8568C16.0357 29.0634 15.7744 29.1667 15.4584 29.1667H5.10425Z" fill="#232B3A"/>
</g>
</svg>
