<svg width="35" height="35" viewBox="0 0 35 35" fill="none" xmlns="http://www.w3.org/2000/svg">
<mask id="mask0_3421_4969" style="mask-type:alpha" maskUnits="userSpaceOnUse" x="0" y="0" width="35" height="35">
<rect width="35" height="35" fill="#D9D9D9"/>
</mask>
<g mask="url(#mask0_3421_4969)">
<path d="M5.83329 11.6667H29.1666V8.75004H5.83329V11.6667ZM2.91663 8.75004C2.91663 7.94796 3.20222 7.26133 3.7734 6.69014C4.34458 6.11896 5.03121 5.83337 5.83329 5.83337H29.1666C29.9687 5.83337 30.6553 6.11896 31.2265 6.69014C31.7977 7.26133 32.0833 7.94796 32.0833 8.75004V16.0417C32.0833 16.4549 31.9435 16.8013 31.664 17.0808C31.3845 17.3603 31.0382 17.5 30.625 17.5H5.83329V26.25H10.3541C10.7673 26.25 11.1137 26.3898 11.3932 26.6693C11.6727 26.9488 11.8125 27.2952 11.8125 27.7084C11.8125 28.1216 11.6727 28.4679 11.3932 28.7474C11.1137 29.027 10.7673 29.1667 10.3541 29.1667H5.83329C5.03121 29.1667 4.34458 28.8811 3.7734 28.3099C3.20222 27.7388 2.91663 27.0521 2.91663 26.25V8.75004ZM5.83329 8.75004V26.25V21.4922V23.8073V8.75004ZM21.802 31.5C21.6076 31.5 21.4253 31.4636 21.2552 31.3907C21.085 31.3177 20.927 31.2084 20.7812 31.0625L16.625 26.9063C16.3576 26.6389 16.2178 26.3047 16.2057 25.9037C16.1935 25.5026 16.3333 25.1563 16.625 24.8646C16.8923 24.5973 17.2265 24.4636 17.6276 24.4636C18.0286 24.4636 18.375 24.5973 18.6666 24.8646L21.802 27.9271L28.9843 20.7448C29.276 20.4532 29.6224 20.3134 30.0234 20.3256C30.4244 20.3377 30.7708 20.4896 31.0625 20.7813C31.3298 21.073 31.4696 21.4132 31.4817 21.8021C31.4939 22.191 31.3541 22.5313 31.0625 22.823L22.8229 31.0625C22.677 31.2084 22.5191 31.3177 22.3489 31.3907C22.1788 31.4636 21.9965 31.5 21.802 31.5Z" fill="white"/>
</g>
</svg>
