<svg width="35" height="35" viewBox="0 0 35 35" fill="none" xmlns="http://www.w3.org/2000/svg">
<mask id="mask0_3421_4897" style="mask-type:alpha" maskUnits="userSpaceOnUse" x="0" y="0" width="35" height="35">
<rect width="35" height="35" fill="#D9D9D9"/>
</mask>
<g mask="url(#mask0_3421_4897)">
<path d="M15.4036 31.7374C15.1727 31.5069 15.0573 31.2212 15.0573 30.8802V23.3698C15.0573 23.2563 15.0633 23.1429 15.0755 23.0297C15.0876 22.9161 15.118 22.7986 15.1666 22.6771L16.8437 17.7552C16.9895 17.3124 17.2539 16.9525 17.6367 16.6757C18.0195 16.3989 18.4479 16.2604 18.9218 16.2604H28.2187C28.6927 16.2604 29.1211 16.3989 29.5039 16.6757C29.8867 16.9525 30.151 17.3124 30.2968 17.7552L31.9739 22.6771C32.0225 22.7986 32.0529 22.9161 32.0651 23.0297C32.0772 23.1429 32.0833 23.2563 32.0833 23.3698V30.8802C32.0833 31.2212 31.9681 31.5069 31.7377 31.7374C31.5072 31.968 31.2217 32.0834 30.8809 32.0834C30.5401 32.0834 30.2543 31.968 30.0234 31.7374C29.7925 31.5069 29.677 31.2212 29.677 30.8802V29.6406H17.4635V30.8802C17.4635 31.2212 17.3483 31.5069 17.1179 31.7374C16.8875 31.968 16.6019 32.0834 16.2611 32.0834C15.9203 32.0834 15.6345 31.968 15.4036 31.7374ZM16.9895 21.9115H30.151L28.7656 17.7188H18.375L16.9895 21.9115ZM19.9791 26.8334C20.2465 26.566 20.3802 26.2257 20.3802 25.8125C20.3802 25.3993 20.2465 25.059 19.9791 24.7917C19.7118 24.5243 19.3715 24.3906 18.9583 24.3906C18.5451 24.3906 18.2048 24.5243 17.9375 24.7917C17.6701 25.059 17.5364 25.3993 17.5364 25.8125C17.5364 26.2257 17.6701 26.566 17.9375 26.8334C18.2048 27.1007 18.5451 27.2344 18.9583 27.2344C19.3715 27.2344 19.7118 27.1007 19.9791 26.8334ZM29.2031 26.8334C29.4704 26.566 29.6041 26.2257 29.6041 25.8125C29.6041 25.3993 29.4704 25.059 29.2031 24.7917C28.9357 24.5243 28.5954 24.3906 28.1823 24.3906C27.7691 24.3906 27.4288 24.5243 27.1614 24.7917C26.8941 25.059 26.7604 25.3993 26.7604 25.8125C26.7604 26.2257 26.8941 26.566 27.1614 26.8334C27.4288 27.1007 27.7691 27.2344 28.1823 27.2344C28.5954 27.2344 28.9357 27.1007 29.2031 26.8334ZM8.74996 20.8542V18.1927H11.4114V20.8542H8.74996ZM16.2968 11.4115V8.75002H18.9583V11.4115H16.2968ZM8.74996 26.4688V23.8073H11.4114V26.4688H8.74996ZM8.74996 32.0834V29.4219H11.4114V32.0834H8.74996ZM2.91663 32.0834V14.5469C2.91663 13.9453 3.13088 13.4303 3.55939 13.0018C3.98765 12.5735 4.50256 12.3594 5.10413 12.3594H10.4635V5.10419C10.4635 4.50262 10.6778 3.98759 11.1063 3.55908C11.5345 3.13082 12.0494 2.91669 12.651 2.91669H22.6041C23.2057 2.91669 23.7207 3.13082 24.1492 3.55908C24.5775 3.98759 24.7916 4.50262 24.7916 5.10419V12.3959H22.6041V5.10419H12.651V14.5469H5.10413V32.0834H2.91663ZM16.5156 28.1823H30.625V23.3698H16.5156V28.1823Z" fill="white"/>
</g>
</svg>
