<svg width="36" height="35" viewBox="0 0 36 35" fill="none" xmlns="http://www.w3.org/2000/svg">
<path d="M28.5 5.83335H27V2.91669H24V5.83335H12V2.91669H9V5.83335H7.5C5.85 5.83335 4.5 7.14585 4.5 8.75002V29.1667C4.5 30.7709 5.85 32.0834 7.5 32.0834H28.5C30.15 32.0834 31.5 30.7709 31.5 29.1667V8.75002C31.5 7.14585 30.15 5.83335 28.5 5.83335ZM28.5 29.1667H7.5V14.5834H28.5V29.1667ZM7.5 11.6667V8.75002H28.5V11.6667H7.5ZM15.84 26.9209L24.735 18.2729L23.145 16.7271L15.84 23.8292L12.675 20.7521L11.085 22.2979L15.84 26.9209Z" fill="white"/>
</svg>
