<svg width="125" height="125" viewBox="0 0 125 125" fill="none" xmlns="http://www.w3.org/2000/svg">
<mask id="mask0_3866_11180" style="mask-type:alpha" maskUnits="userSpaceOnUse" x="0" y="0" width="125" height="125">
<rect width="125" height="125" fill="#D9D9D9"/>
</mask>
<g mask="url(#mask0_3866_11180)">
<path d="M52.3438 85.9375L59.7656 93.099C60.5469 93.7934 61.4583 94.1189 62.5 94.0755C63.5417 94.0321 64.4531 93.6632 65.2344 92.9687L72.3958 85.9375H82.0313C83.138 85.9375 84.066 85.5629 84.8151 84.8138C85.5634 84.0655 85.9375 83.138 85.9375 82.0312V72.3958L93.099 65.2344C93.8802 64.4531 94.2708 63.5417 94.2708 62.5C94.2708 61.4583 93.8802 60.5469 93.099 59.7656L85.9375 52.6042V42.9687C85.9375 41.862 85.5634 40.934 84.8151 40.1849C84.066 39.4366 83.138 39.0625 82.0313 39.0625H72.3958L64.5833 31.25C63.9913 30.6424 63.3008 30.3385 62.5117 30.3385C61.7227 30.3385 61.0243 30.6424 60.4167 31.25L52.6042 39.0625H42.9688C41.862 39.0625 40.9345 39.4366 40.1862 40.1849C39.4371 40.934 39.0625 41.862 39.0625 42.9687V52.6042L31.901 59.7656C31.1198 60.5469 30.7292 61.4583 30.7292 62.5C30.7292 63.5417 31.1198 64.4531 31.901 65.2344L39.0625 72.3958V82.0312C39.0625 83.138 39.4371 84.0655 40.1862 84.8138C40.9345 85.5629 41.862 85.9375 42.9688 85.9375H52.3438ZM45.0729 104.167H28.6458C26.4974 104.167 24.6584 103.401 23.1289 101.871C21.5985 100.342 20.8333 98.5026 20.8333 96.3542V80.0013L8.85417 67.9687C8.07292 67.1875 7.50868 66.3277 7.16146 65.3893C6.81424 64.4501 6.64062 63.4952 6.64062 62.5247C6.64062 61.5534 6.81424 60.5903 7.16146 59.6354C7.50868 58.6806 8.07292 57.8125 8.85417 57.0312L20.8333 44.9987V28.6458C20.8333 26.4974 21.5985 24.658 23.1289 23.1276C24.6584 21.5981 26.4974 20.8333 28.6458 20.8333H44.9987L57.0313 8.85417C57.8125 8.07292 58.7023 7.50868 59.7005 7.16146C60.6988 6.81424 61.684 6.64062 62.6563 6.64062C63.6276 6.64062 64.5833 6.84462 65.5234 7.25261C66.4627 7.65972 67.3212 8.23698 68.099 8.98437L79.9479 20.8333H96.3542C98.5026 20.8333 100.342 21.5981 101.872 23.1276C103.402 24.658 104.167 26.4974 104.167 28.6458V44.9987L116.146 57.0312C116.927 57.8125 117.491 58.6723 117.839 59.6107C118.186 60.5499 118.359 61.5048 118.359 62.4753C118.359 63.4466 118.186 64.4097 117.839 65.3646C117.491 66.3194 116.927 67.1875 116.146 67.9687L104.167 80.0013V96.3542C104.167 98.5026 103.402 100.342 101.872 101.871C100.342 103.401 98.5026 104.167 96.3542 104.167H79.9479L68.099 115.885C67.3212 116.591 66.4627 117.137 65.5234 117.522C64.5833 117.907 63.6276 118.099 62.6563 118.099C61.684 118.099 60.7222 117.907 59.7708 117.522C58.8186 117.137 57.9488 116.591 57.1615 115.885L45.0729 104.167ZM48.1771 96.3542L62.6302 110.286L76.6823 96.3542H96.3542V76.6927L110.547 62.5L96.3542 48.3073V28.6458H76.6927L62.6302 14.4531L48.3073 28.6458H28.6458V48.3073L14.4531 62.5L28.6458 76.6927V96.3542H48.1771Z" fill="#299261"/>
</g>
</svg>
