<svg width="35" height="35" viewBox="0 0 35 35" fill="none" xmlns="http://www.w3.org/2000/svg">
<mask id="mask0_3853_11147" style="mask-type:alpha" maskUnits="userSpaceOnUse" x="0" y="0" width="35" height="35">
<rect width="35" height="35" fill="white"/>
</mask>
<g mask="url(#mask0_3853_11147)">
<path d="M20.4166 30.625C20.8298 30.625 21.1762 30.4853 21.4557 30.2058C21.7352 29.9263 21.875 29.5799 21.875 29.1667C21.875 28.7535 21.7352 28.4072 21.4557 28.1276C21.1762 27.8481 20.8298 27.7084 20.4166 27.7084C20.0034 27.7084 19.6571 27.8481 19.3776 28.1276C19.0981 28.4072 18.9583 28.7535 18.9583 29.1667C18.9583 29.5799 19.0981 29.9263 19.3776 30.2058C19.6571 30.4853 20.0034 30.625 20.4166 30.625ZM29.1666 16.0417C29.5798 16.0417 29.9262 15.902 30.2057 15.6224C30.4852 15.3429 30.625 14.9966 30.625 14.5834C30.625 14.1702 30.4852 13.8238 30.2057 13.5443C29.9262 13.2648 29.5798 13.125 29.1666 13.125C28.7534 13.125 28.4071 13.2648 28.1276 13.5443C27.8481 13.8238 27.7083 14.1702 27.7083 14.5834C27.7083 14.9966 27.8481 15.3429 28.1276 15.6224C28.4071 15.902 28.7534 16.0417 29.1666 16.0417ZM8.74996 16.0417H16.0416V13.125H8.74996V16.0417ZM8.74996 21.875H16.0416V18.9584H8.74996V21.875ZM5.83329 29.1667C5.03121 29.1667 4.34458 28.8811 3.7734 28.3099C3.20222 27.7388 2.91663 27.0521 2.91663 26.25V8.75004C2.91663 7.94796 3.20222 7.26133 3.7734 6.69014C4.34458 6.11896 5.03121 5.83337 5.83329 5.83337H29.1666C29.9687 5.83337 30.6553 6.11896 31.2265 6.69014C31.7977 7.26133 32.0833 7.94796 32.0833 8.75004H5.83329V26.25H13.125V29.1667H5.83329ZM17.3177 32.2657C16.467 31.415 16.0416 30.382 16.0416 29.1667C16.0416 28.2188 16.3151 27.3681 16.8619 26.6146C17.4088 25.8612 18.1076 25.3386 18.9583 25.0469V20.4167H27.7083V18.7032C26.8576 18.4115 26.1588 17.8889 25.6119 17.1355C25.0651 16.382 24.7916 15.5313 24.7916 14.5834C24.7916 13.3681 25.217 12.3351 26.0677 11.4844C26.9184 10.6337 27.9513 10.2084 29.1666 10.2084C30.3819 10.2084 31.4149 10.6337 32.2656 11.4844C33.1163 12.3351 33.5416 13.3681 33.5416 14.5834C33.5416 15.5313 33.2682 16.382 32.7213 17.1355C32.1744 17.8889 31.4757 18.4115 30.625 18.7032V23.3334H21.875V25.0469C22.7257 25.3386 23.4244 25.8612 23.9713 26.6146C24.5182 27.3681 24.7916 28.2188 24.7916 29.1667C24.7916 30.382 24.3663 31.415 23.5156 32.2657C22.6649 33.1164 21.6319 33.5417 20.4166 33.5417C19.2013 33.5417 18.1684 33.1164 17.3177 32.2657Z" fill="white"/>
</g>
</svg>
