<svg width="35" height="35" viewBox="0 0 35 35" fill="none" xmlns="http://www.w3.org/2000/svg">
<mask id="mask0_3878_11145" style="mask-type:alpha" maskUnits="userSpaceOnUse" x="0" y="0" width="35" height="35">
<rect width="35" height="35" fill="white"/>
</mask>
<g mask="url(#mask0_3878_11145)">
<path d="M3.88889 35C2.81944 35 1.90394 34.6192 1.14236 33.8576C0.380787 33.0961 0 32.1806 0 31.1111V3.88889C0 2.81944 0.380787 1.90394 1.14236 1.14236C1.90394 0.380787 2.81944 0 3.88889 0H31.1111C32.1806 0 33.0961 0.380787 33.8576 1.14236C34.6192 1.90394 35 2.81944 35 3.88889V31.1111C35 32.1806 34.6192 33.0961 33.8576 33.8576C33.0961 34.6192 32.1806 35 31.1111 35H3.88889ZM3.88889 31.1111H31.1111V25.2778H25.2778C24.3056 26.5093 23.147 27.4653 21.8021 28.1458C20.4572 28.8264 19.0231 29.1667 17.5 29.1667C15.9769 29.1667 14.5428 28.8264 13.1979 28.1458C11.853 27.4653 10.6944 26.5093 9.72222 25.2778H3.88889V31.1111ZM20.8542 24.2083C21.8588 23.4954 22.5556 22.5556 22.9444 21.3889H31.1111V3.88889H3.88889V21.3889H12.0556C12.4444 22.5556 13.1412 23.4954 14.1458 24.2083C15.1505 24.9213 16.2685 25.2778 17.5 25.2778C18.7315 25.2778 19.8495 24.9213 20.8542 24.2083Z" fill="white"/>
</g>
</svg>
