<svg width="35" height="35" viewBox="0 0 35 35" fill="none" xmlns="http://www.w3.org/2000/svg">
<mask id="mask0_3862_11142" style="mask-type:alpha" maskUnits="userSpaceOnUse" x="0" y="0" width="35" height="35">
<rect width="35" height="35" fill="white"/>
</mask>
<g mask="url(#mask0_3862_11142)">
<path d="M15.2396 8.89247C14.6319 8.28264 14.3281 7.52917 14.3281 6.63205C14.3281 5.73494 14.633 4.97648 15.2429 4.35669C15.8527 3.7369 16.6062 3.427 17.5033 3.427C18.4004 3.427 19.1528 3.73799 19.7604 4.35997C20.3681 4.98195 20.6719 5.7415 20.6719 6.63862C20.6719 7.53574 20.367 8.28811 19.7571 8.89575C19.1473 9.50339 18.3938 9.80721 17.4967 9.80721C16.5996 9.80721 15.8472 9.5023 15.2396 8.89247ZM15.7682 30.8408C15.2943 30.3768 15.0573 29.7944 15.0573 29.0937V15.8958C15.0573 15.2193 15.2957 14.643 15.7726 14.1669C16.2495 13.691 16.8267 13.453 17.5044 13.453C18.182 13.453 18.7578 13.691 19.2318 14.1669C19.7057 14.643 19.9427 15.2193 19.9427 15.8958V29.0937C19.9427 29.7944 19.7043 30.3768 19.2274 30.8408C18.7505 31.3045 18.1733 31.5364 17.4956 31.5364C16.818 31.5364 16.2422 31.3045 15.7682 30.8408Z" fill="white"/>
</g>
</svg>
