<svg width="125" height="125" viewBox="0 0 125 125" fill="none" xmlns="http://www.w3.org/2000/svg">
<mask id="mask0_3421_5036" style="mask-type:alpha" maskUnits="userSpaceOnUse" x="0" y="0" width="125" height="125">
<rect width="125" height="125" fill="#D9D9D9"/>
</mask>
<g mask="url(#mask0_3421_5036)">
<path d="M38.0208 56.3809C34.375 52.735 32.552 48.0475 32.552 42.3184C32.552 36.5892 34.375 31.9017 38.0208 28.2559C41.6666 24.61 46.3541 22.7871 52.0833 22.7871C57.8125 22.7871 62.5 24.61 66.1458 28.2559C69.7916 31.9017 71.6145 36.5892 71.6145 42.3184C71.6145 48.0475 69.7916 52.735 66.1458 56.3809C62.5 60.0267 57.8125 61.8496 52.0833 61.8496C46.3541 61.8496 41.6666 60.0267 38.0208 56.3809ZM10.4166 95.834V91.4069C10.4166 88.3687 11.1762 85.5909 12.6953 83.0736C14.2144 80.5562 16.4062 78.6465 19.2708 77.3444C24.3055 75.0875 29.4921 73.2645 34.8307 71.8756C40.1692 70.4868 45.6163 69.7923 51.1718 69.7923C52.3003 69.7923 53.2335 70.1612 53.9713 70.8991C54.7092 71.6369 55.0781 72.5701 55.0781 73.6986C55.0781 74.827 54.7092 75.7602 53.9713 76.498C53.2335 77.2359 52.3003 77.6048 51.1718 77.6048C46.1371 77.6048 41.2109 78.2125 36.3932 79.4277C31.5755 80.643 26.9097 82.3791 22.3958 84.6361C21.1805 85.3305 20.1823 86.2637 19.401 87.4355C18.6198 88.6074 18.2291 89.9312 18.2291 91.4069V95.834H51.302C52.4305 95.834 53.3637 96.2029 54.1015 96.9408C54.8394 97.6786 55.2083 98.6118 55.2083 99.7402C55.2083 100.869 54.8394 101.802 54.1015 102.54C53.3637 103.278 52.4305 103.646 51.302 103.646H18.2291C16.059 103.646 14.2144 102.887 12.6953 101.368C11.1762 99.8487 10.4166 98.0041 10.4166 95.834ZM86.4583 106.381L85.5468 100.782C84.0711 100.348 82.5737 99.7185 81.0546 98.8939C79.5356 98.0692 78.2552 97.1361 77.2135 96.0944L72.2656 97.1361C71.5711 97.3097 70.9201 97.2663 70.3125 97.0059C69.7048 96.7454 69.2274 96.3114 68.8802 95.7038L68.0989 94.4017C67.6649 93.7072 67.513 93.0128 67.6432 92.3184C67.7734 91.6239 68.0989 91.0163 68.6198 90.4954L72.9166 86.459C72.743 85.6777 72.6562 84.5927 72.6562 83.2038C72.6562 81.8149 72.743 80.7298 72.9166 79.9486L68.6198 75.9121C68.0989 75.4781 67.7734 74.8921 67.6432 74.1543C67.513 73.4164 67.6649 72.7437 68.0989 72.1361L68.8802 70.5736C69.2274 69.9659 69.6831 69.5536 70.2474 69.3366C70.8116 69.1196 71.4409 69.0979 72.1354 69.2715L77.2135 70.3131C78.2552 69.2715 79.5356 68.3383 81.0546 67.5137C82.5737 66.689 84.0711 66.0597 85.5468 65.6257L86.4583 60.0267C86.6319 59.1586 87.0225 58.4425 87.6302 57.8783C88.2378 57.314 88.9757 57.0319 89.8437 57.0319H90.8854C91.7534 57.0319 92.4913 57.314 93.0989 57.8783C93.7066 58.4425 94.0972 59.1586 94.2708 60.0267L95.1823 65.6257C96.6579 66.0597 98.1553 66.689 99.6744 67.5137C101.194 68.3383 102.474 69.2715 103.516 70.3131L108.464 69.2715C109.158 69.0979 109.809 69.1413 110.417 69.4017C111.024 69.6621 111.502 70.0961 111.849 70.7038L112.63 72.0059C113.064 72.7003 113.216 73.3947 113.086 74.0892C112.956 74.7836 112.63 75.3913 112.109 75.9121L107.812 79.9486C107.986 80.7298 108.073 81.8149 108.073 83.2038C108.073 84.5927 107.986 85.6777 107.812 86.459L112.109 90.4954C112.63 90.9295 112.956 91.5154 113.086 92.2533C113.216 92.9911 113.064 93.6638 112.63 94.2715L111.849 95.834C111.502 96.4416 111.046 96.8539 110.482 97.071C109.917 97.288 109.288 97.3097 108.594 97.1361L103.516 96.0944C102.474 97.1361 101.194 98.0692 99.6744 98.8939C98.1553 99.7185 96.6579 100.348 95.1823 100.782L94.2708 106.381C94.0972 107.249 93.7066 107.965 93.0989 108.529C92.4913 109.094 91.7534 109.376 90.8854 109.376H89.8437C88.9757 109.376 88.2378 109.094 87.6302 108.529C87.0225 107.965 86.6319 107.249 86.4583 106.381ZM97.9166 90.7559C99.8264 88.8461 100.781 86.3288 100.781 83.2038C100.781 80.0788 99.8264 77.5614 97.9166 75.6517C96.0069 73.742 93.4895 72.7871 90.3645 72.7871C87.2395 72.7871 84.7222 73.742 82.8125 75.6517C80.9027 77.5614 79.9479 80.0788 79.9479 83.2038C79.9479 86.3288 80.9027 88.8461 82.8125 90.7559C84.7222 92.6656 87.2395 93.6204 90.3645 93.6204C93.4895 93.6204 96.0069 92.6656 97.9166 90.7559ZM60.4817 50.7168C62.6953 48.5033 63.802 45.7038 63.802 42.3184C63.802 38.9329 62.6953 36.1335 60.4817 33.9199C58.2682 31.7064 55.4687 30.5996 52.0833 30.5996C48.6979 30.5996 45.8984 31.7064 43.6849 33.9199C41.4713 36.1335 40.3645 38.9329 40.3645 42.3184C40.3645 45.7038 41.4713 48.5033 43.6849 50.7168C45.8984 52.9303 48.6979 54.0371 52.0833 54.0371C55.4687 54.0371 58.2682 52.9303 60.4817 50.7168Z" fill="#299261"/>
</g>
</svg>
