<svg width="35" height="35" viewBox="0 0 35 35" fill="none" xmlns="http://www.w3.org/2000/svg">
<mask id="mask0_3421_4940" style="mask-type:alpha" maskUnits="userSpaceOnUse" x="0" y="0" width="35" height="35">
<rect width="35" height="35" fill="#D9D9D9"/>
</mask>
<g mask="url(#mask0_3421_4940)">
<path d="M6.927 27.7084C6.61711 27.7084 6.3574 27.6029 6.14789 27.3919C5.93813 27.1812 5.83325 26.9199 5.83325 26.608C5.83325 26.2964 5.93813 26.0373 6.14789 25.8307C6.3574 25.6242 6.61711 25.5209 6.927 25.5209H8.74992V14.4375C8.74992 12.3959 9.35148 10.5669 10.5546 8.95054C11.7577 7.33422 13.3437 6.31946 15.3124 5.90627V5.10419C15.3124 4.49655 15.5251 3.98006 15.9504 3.55471C16.3758 3.12936 16.8923 2.91669 17.4999 2.91669C18.1076 2.91669 18.6241 3.12936 19.0494 3.55471C19.4747 3.98006 19.6874 4.49655 19.6874 5.10419V5.90627C21.6562 6.31946 23.2421 7.33422 24.4452 8.95054C25.6484 10.5669 26.2499 12.3959 26.2499 14.4375V25.5209H28.0728C28.3827 25.5209 28.6426 25.6263 28.8523 25.8373C29.0618 26.048 29.1666 26.3093 29.1666 26.6212C29.1666 26.9328 29.0618 27.1919 28.8523 27.3985C28.6426 27.6051 28.3827 27.7084 28.0728 27.7084H6.927ZM17.4999 32.0834C16.6978 32.0834 16.0112 31.7978 15.44 31.2266C14.8688 30.6554 14.5833 29.9688 14.5833 29.1667H20.4166C20.4166 29.9688 20.131 30.6554 19.5598 31.2266C18.9886 31.7978 18.302 32.0834 17.4999 32.0834ZM10.9374 25.5209H24.0624V14.4375C24.0624 12.6146 23.4244 11.0651 22.1484 9.78908C20.8723 8.51304 19.3228 7.87502 17.4999 7.87502C15.677 7.87502 14.1275 8.51304 12.8515 9.78908C11.5754 11.0651 10.9374 12.6146 10.9374 14.4375V25.5209Z" fill="white"/>
</g>
</svg>
