<svg width="35" height="35" viewBox="0 0 35 35" fill="none" xmlns="http://www.w3.org/2000/svg">
<path d="M20.0055 12.438L19.9849 22.5491C19.9842 22.9146 20.1511 23.1631 20.4856 23.2943C20.8204 23.4253 21.1177 23.3614 21.3775 23.1027L25.8588 18.6396C26.1835 18.3161 26.3463 17.9384 26.3472 17.5065C26.3481 17.0745 26.1868 16.6961 25.8634 16.3714L21.4003 11.8901C21.1415 11.6303 20.8445 11.5652 20.5092 11.6948C20.1741 11.8247 20.0062 12.0724 20.0055 12.438ZM3.2409 35C2.3497 35 1.58667 34.6827 0.951806 34.0482C0.317269 33.4133 0 32.6503 0 31.7591V3.2409C0 2.3497 0.317269 1.58667 0.951806 0.951806C1.58667 0.317269 2.3497 0 3.2409 0H31.7591C32.6503 0 33.4133 0.317269 34.0482 0.951806C34.6827 1.58667 35 2.3497 35 3.2409V31.7591C35 32.6503 34.6827 33.4133 34.0482 34.0482C33.4133 34.6827 32.6503 35 31.7591 35H3.2409ZM13.1897 31.7591H31.7591V3.2409H13.1897V31.7591Z" fill="white"/>
</svg>
