<svg width="125" height="125" viewBox="0 0 125 125" fill="none" xmlns="http://www.w3.org/2000/svg">
<g>
<path d="M85.2863 45.5732H96.354C98.5241 45.5732 100.369 44.8137 101.888 43.2946C103.407 41.7755 104.167 39.9309 104.167 37.7607V32.5524C104.167 30.3823 103.407 28.5377 101.888 27.0186C100.369 25.4995 98.5241 24.7399 96.354 24.7399H82.0311C80.9243 24.7399 79.9968 25.114 79.2485 25.8623C78.4994 26.6114 78.1248 27.5394 78.1248 28.6462V52.4743C78.1248 53.4291 78.4938 54.2538 79.2316 54.9482C79.9695 55.6427 80.8158 55.9899 81.7707 55.9899C82.7255 55.9899 83.5502 55.621 84.2446 54.8831C84.9391 54.1453 85.2863 53.2989 85.2863 52.3441V45.5732ZM85.2863 39.0628V31.2503H97.0051V39.0628H85.2863ZM67.7082 70.3128C65.6248 70.3128 63.8019 69.5316 62.2394 67.9691C60.6769 66.4066 59.8957 64.5837 59.8957 62.5003V18.2295C59.8957 16.1462 60.6769 14.3232 62.2394 12.7607C63.8019 11.1982 65.6248 10.417 67.7082 10.417H111.979C114.062 10.417 115.885 11.1982 117.448 12.7607C119.01 14.3232 119.792 16.1462 119.792 18.2295V62.5003C119.792 64.5837 119.01 66.4066 117.448 67.9691C115.885 69.5316 114.062 70.3128 111.979 70.3128H93.7498V105.469C93.7498 106.576 93.3731 107.503 92.6196 108.252C91.867 109.001 90.9339 109.375 89.8202 109.375C88.7073 109.375 87.782 109.001 87.0441 108.252C86.3063 107.503 85.9373 106.576 85.9373 105.469V70.3128H67.7082ZM67.7082 62.5003H111.979V18.2295H67.7082V62.5003ZM45.4425 109.375C44.3141 109.375 43.4026 109.001 42.7082 108.252C42.0137 107.503 41.6665 106.576 41.6665 105.469V98.4378H14.3228C13.216 98.4378 12.2885 98.0611 11.5402 97.3076C10.7911 96.555 10.4165 95.6218 10.4165 94.5081C10.4165 93.3953 10.7911 92.4699 11.5402 91.7321C12.2885 90.9942 13.216 90.6253 14.3228 90.6253H44.2707V63.2816H14.3228C13.216 63.2816 12.2885 62.9048 11.5402 62.1514C10.7911 61.3988 10.4165 60.4656 10.4165 59.3519C10.4165 58.239 10.7911 57.3137 11.5402 56.5758C12.2885 55.838 13.216 55.4691 14.3228 55.4691H41.2759L34.1144 33.8545H14.3228C13.216 33.8545 12.2885 33.4778 11.5402 32.7243C10.7911 31.9717 10.4165 31.0385 10.4165 29.9248C10.4165 28.812 10.7911 27.8866 11.5402 27.1488C12.2885 26.4109 13.216 26.042 14.3228 26.042H35.4165C36.7186 26.042 37.8688 26.3892 38.867 27.0837C39.8653 27.7781 40.5814 28.733 41.0155 29.9482L51.6925 62.1097C51.8662 62.5437 51.9747 62.9634 52.0181 63.3688C52.0615 63.7733 52.0832 64.1783 52.0832 64.5837V105.469C52.0832 106.576 51.709 107.503 50.9608 108.252C50.2116 109.001 49.2837 109.375 48.1769 109.375H45.4425ZM30.5988 84.1149C32.624 84.1149 34.3458 83.4313 35.7642 82.0641C37.1817 80.6969 37.8905 79.0368 37.8905 77.0837C37.8905 75.0585 37.1847 73.3367 35.7733 71.9183C34.3609 70.5008 32.6465 69.792 30.63 69.792C28.6127 69.792 26.9313 70.4977 25.5858 71.9092C24.2403 73.3215 23.5675 75.0359 23.5675 77.0524C23.5675 79.0698 24.2511 80.7512 25.6183 82.0967C26.9855 83.4422 28.6457 84.1149 30.5988 84.1149Z" fill="#299261"/>
</g>
</svg>
