<svg width="35" height="35" viewBox="0 0 35 35" fill="none" xmlns="http://www.w3.org/2000/svg">
<mask id="mask0_3421_4915" style="mask-type:alpha" maskUnits="userSpaceOnUse" x="0" y="0" width="35" height="35">
<rect width="35" height="35" fill="#D9D9D9"/>
</mask>
<g mask="url(#mask0_3421_4915)">
<path d="M5.10413 29.1666C4.52079 29.1666 4.01038 28.9478 3.57288 28.5103C3.13538 28.0728 2.91663 27.5624 2.91663 26.9791V8.02075C2.91663 7.43742 3.13538 6.927 3.57288 6.4895C4.01038 6.052 4.52079 5.83325 5.10413 5.83325H29.8958C30.4791 5.83325 30.9895 6.052 31.427 6.4895C31.8645 6.927 32.0833 7.43742 32.0833 8.02075V26.9791C32.0833 27.5624 31.8645 28.0728 31.427 28.5103C30.9895 28.9478 30.4791 29.1666 29.8958 29.1666H5.10413ZM5.10413 26.9791H29.8958V8.02075H5.10413V26.9791ZM8.02079 24.0624H20.9635L13.8906 10.9374H8.02079V24.0624ZM19.6875 14.7655H26.9791V10.9374H19.6875V14.7655Z" fill="white"/>
</g>
</svg>
