<svg width="35" height="35" viewBox="0 0 35 35" fill="none" xmlns="http://www.w3.org/2000/svg">
<mask id="mask0_3421_4963" style="mask-type:alpha" maskUnits="userSpaceOnUse" x="0" y="0" width="35" height="35">
<rect width="35" height="35" fill="#D9D9D9"/>
</mask>
<g mask="url(#mask0_3421_4963)">
<path d="M5.83307 28.0737V25.7404C5.83307 24.8168 6.06397 24.0269 6.52578 23.3706C6.98758 22.7144 7.58307 22.2161 8.31224 21.8758C9.94071 21.1466 11.5023 20.5998 12.9971 20.2352C14.4919 19.8706 15.9928 19.6883 17.4997 19.6883C18.4238 19.6883 19.3354 19.7612 20.2345 19.9071C21.1335 20.0529 22.0449 20.2595 22.9685 20.5269L21.2185 22.2404C20.5865 22.1189 19.968 22.0277 19.3628 21.967C18.7578 21.9062 18.1368 21.8758 17.4997 21.8758C16.1143 21.8758 14.7654 22.0156 13.4529 22.2951C12.1404 22.5746 10.7185 23.0911 9.18724 23.8446C8.84696 24.0147 8.56744 24.276 8.34869 24.6284C8.12994 24.9808 8.02057 25.3515 8.02057 25.7404V26.98H18.2289V29.1675H6.92682C6.61692 29.1675 6.35722 29.0626 6.1477 28.8528C5.93795 28.6433 5.83307 28.3836 5.83307 28.0737ZM20.4164 29.5321V27.0529C20.4164 26.7505 20.4772 26.4623 20.5987 26.1881C20.7202 25.9139 20.8782 25.6796 21.0727 25.4852L28.4642 18.1286C28.6893 17.9045 28.9355 17.7439 29.2029 17.6466C29.4702 17.5494 29.7376 17.5008 30.0049 17.5008C30.2966 17.5008 30.5761 17.5555 30.8435 17.6649C31.1108 17.7743 31.3539 17.9383 31.5727 18.1571L32.9216 19.506C33.1404 19.7248 33.2983 19.9678 33.3956 20.2352C33.4928 20.5026 33.5414 20.7699 33.5414 21.0373C33.5414 21.3046 33.4867 21.5781 33.3773 21.8576C33.268 22.1371 33.1018 22.3889 32.879 22.613L25.557 29.9696C25.3626 30.164 25.1283 30.322 24.8541 30.4435C24.5799 30.5651 24.2917 30.6258 23.9893 30.6258H21.5102C21.2003 30.6258 20.9406 30.5209 20.731 30.3112C20.5213 30.1017 20.4164 29.842 20.4164 29.5321ZM22.6039 28.4383H23.9893L28.4008 23.9904L27.7445 23.2977L27.0518 22.6414L22.6039 27.0529V28.4383ZM27.7445 23.2977L27.0518 22.6414L28.4008 23.9904L27.7445 23.2977ZM13.6169 15.8784C12.5596 14.8211 12.031 13.5269 12.031 11.9956C12.031 10.4644 12.5596 9.17008 13.6169 8.11279C14.6742 7.0555 15.9685 6.52686 17.4997 6.52686C19.031 6.52686 20.3253 7.0555 21.3826 8.11279C22.4398 9.17008 22.9685 10.4644 22.9685 11.9956C22.9685 13.5269 22.4398 14.8211 21.3826 15.8784C20.3253 16.9357 19.031 17.4644 17.4997 17.4644C15.9685 17.4644 14.6742 16.9357 13.6169 15.8784ZM19.8331 14.3289C20.465 13.697 20.781 12.9192 20.781 11.9956C20.781 11.072 20.465 10.2942 19.8331 9.66227C19.2011 9.03033 18.4233 8.71436 17.4997 8.71436C16.5761 8.71436 15.7983 9.03033 15.1664 9.66227C14.5345 10.2942 14.2185 11.072 14.2185 11.9956C14.2185 12.9192 14.5345 13.697 15.1664 14.3289C15.7983 14.9609 16.5761 15.2769 17.4997 15.2769C18.4233 15.2769 19.2011 14.9609 19.8331 14.3289Z" fill="white"/>
</g>
</svg>
