<svg width="35" height="35" viewBox="0 0 35 35" fill="none" xmlns="http://www.w3.org/2000/svg">
<mask id="mask0_3562_9238" style="mask-type:alpha" maskUnits="userSpaceOnUse" x="0" y="0" width="35" height="35">
<rect width="35" height="35" fill="#232B3A"/>
</mask>
<g mask="url(#mask0_3562_9238)">
<path d="M3.8281 20.4532L1.45831 18.7396L8.74998 7.07296L13.125 12.1771L18.9583 2.69796L23.3333 9.26046L28.2552 1.45837L30.625 3.17192L23.4062 14.6198L19.0677 8.09379L13.526 17.099L9.11456 11.9584L3.8281 20.4532ZM21.1458 26.25C22.1666 26.25 23.0295 25.8976 23.7344 25.1927C24.4392 24.4879 24.7916 23.625 24.7916 22.6042C24.7916 21.5834 24.4392 20.7205 23.7344 20.0157C23.0295 19.3108 22.1666 18.9584 21.1458 18.9584C20.125 18.9584 19.2621 19.3108 18.5573 20.0157C17.8524 20.7205 17.5 21.5834 17.5 22.6042C17.5 23.625 17.8524 24.4879 18.5573 25.1927C19.2621 25.8976 20.125 26.25 21.1458 26.25ZM28.5833 32.0834L24.6458 28.1459C24.1354 28.4862 23.5824 28.7414 22.987 28.9115C22.3915 29.0816 21.7778 29.1667 21.1458 29.1667C19.3229 29.1667 17.7734 28.5287 16.4974 27.2526C15.2213 25.9766 14.5833 24.4271 14.5833 22.6042C14.5833 20.7813 15.2213 19.2318 16.4974 17.9558C17.7734 16.6797 19.3229 16.0417 21.1458 16.0417C22.9687 16.0417 24.5182 16.6797 25.7942 17.9558C27.0703 19.2318 27.7083 20.7813 27.7083 22.6042C27.7083 23.2362 27.6232 23.8499 27.4531 24.4454C27.283 25.0408 27.0278 25.5938 26.6875 26.1042L30.625 30.0417L28.5833 32.0834Z" fill="white"/>
</g>
</svg>
