<svg width="125" height="125" viewBox="0 0 125 125" fill="none" xmlns="http://www.w3.org/2000/svg">
<mask id="mask0_3633_12357" style="mask-type:alpha" maskUnits="userSpaceOnUse" x="0" y="0" width="125" height="125">
<rect width="125" height="125" fill="#D9D9D9"/>
</mask>
<g mask="url(#mask0_3633_12357)">
<path d="M28.9062 114.584C25.1085 114.584 21.8806 113.254 19.2227 110.595C16.5638 107.937 15.2344 104.71 15.2344 100.912V88.542C15.2344 87.4352 15.6089 86.5073 16.3581 85.7581C17.1063 85.0099 18.0339 84.6357 19.1406 84.6357H31.7708V12.7607C31.7708 12.305 31.9661 11.9956 32.3568 11.8324C32.7474 11.67 33.1163 11.7625 33.4635 12.1097L38.151 16.7972C38.5538 17.2312 39.0234 17.4482 39.5599 17.4482C40.0964 17.4482 40.5816 17.2312 41.0156 16.7972L45.9635 11.8493C46.3663 11.4153 46.8359 11.1982 47.3724 11.1982C47.9089 11.1982 48.3941 11.4153 48.8281 11.8493L53.6458 16.7972C54.0486 17.2312 54.5182 17.4482 55.0547 17.4482C55.5911 17.4482 56.0764 17.2312 56.5104 16.7972L61.4583 11.8493C61.8611 11.4153 62.3307 11.1982 62.8672 11.1982C63.4036 11.1982 63.8889 11.4153 64.3229 11.8493L69.2708 16.7972C69.6736 17.2312 70.1432 17.4482 70.6797 17.4482C71.2161 17.4482 71.7014 17.2312 72.1354 16.7972L77.0833 11.8493C77.4861 11.4153 77.9557 11.1982 78.4922 11.1982C79.0286 11.1982 79.5139 11.4153 79.9479 11.8493L84.8958 16.7972C85.2986 17.2312 85.7682 17.4482 86.3047 17.4482C86.8411 17.4482 87.3264 17.2312 87.7604 16.7972L92.7083 11.8493C93.1111 11.4153 93.5807 11.1982 94.1172 11.1982C94.6536 11.1982 95.1389 11.4153 95.5729 11.8493L100.521 16.7972C100.924 17.2312 101.393 17.4482 101.93 17.4482C102.466 17.4482 102.951 17.2312 103.385 16.7972L108.073 12.1097C108.42 11.7625 108.789 11.67 109.18 11.8324C109.57 11.9956 109.766 12.305 109.766 12.7607V100.912C109.766 104.71 108.437 107.937 105.779 110.595C103.12 113.254 99.8915 114.584 96.0938 114.584H28.9062ZM96.0938 106.771C97.8299 106.771 99.2405 106.229 100.326 105.144C101.411 104.058 101.953 102.648 101.953 100.912V23.4378H39.5833V84.6357H86.3281C87.4349 84.6357 88.3629 85.0099 89.112 85.7581C89.8603 86.5073 90.2344 87.4352 90.2344 88.542V100.892C90.2344 102.641 90.7769 104.058 91.862 105.144C92.9471 106.229 94.3576 106.771 96.0938 106.771ZM50.3906 36.1982H73.8281C74.9349 36.1982 75.8629 36.575 76.612 37.3284C77.3602 38.0811 77.7344 39.0142 77.7344 40.1279C77.7344 41.2408 77.3602 42.1661 76.612 42.904C75.8629 43.6418 74.9349 44.0107 73.8281 44.0107H50.3906C49.2839 44.0107 48.3563 43.634 47.6081 42.8805C46.8589 42.1279 46.4844 41.1948 46.4844 40.0811C46.4844 38.9682 46.8589 38.0429 47.6081 37.305C48.3563 36.5672 49.2839 36.1982 50.3906 36.1982ZM50.3906 53.6462H73.8281C74.9349 53.6462 75.8629 54.0229 76.612 54.7764C77.3602 55.529 77.7344 56.4621 77.7344 57.5758C77.7344 58.6887 77.3602 59.614 76.612 60.3519C75.8629 61.0897 74.9349 61.4587 73.8281 61.4587H50.3906C49.2839 61.4587 48.3563 61.0819 47.6081 60.3285C46.8589 59.5759 46.4844 58.6427 46.4844 57.529C46.4844 56.4161 46.8589 55.4908 47.6081 54.7529C48.3563 54.0151 49.2839 53.6462 50.3906 53.6462ZM89.8438 44.0107C88.8021 44.0107 87.8906 43.6201 87.1094 42.8389C86.3281 42.0576 85.9375 41.1462 85.9375 40.1045C85.9375 39.0628 86.3281 38.1514 87.1094 37.3701C87.8906 36.5889 88.8021 36.1982 89.8438 36.1982C90.8854 36.1982 91.7969 36.5889 92.5781 37.3701C93.3594 38.1514 93.75 39.0628 93.75 40.1045C93.75 41.1462 93.3594 42.0576 92.5781 42.8389C91.7969 43.6201 90.8854 44.0107 89.8438 44.0107ZM89.8438 60.8076C88.8021 60.8076 87.8906 60.417 87.1094 59.6357C86.3281 58.8545 85.9375 57.943 85.9375 56.9014C85.9375 55.8597 86.3281 54.9482 87.1094 54.167C87.8906 53.3857 88.8021 52.9951 89.8438 52.9951C90.8854 52.9951 91.7969 53.3857 92.5781 54.167C93.3594 54.9482 93.75 55.8597 93.75 56.9014C93.75 57.943 93.3594 58.8545 92.5781 59.6357C91.7969 60.417 90.8854 60.8076 89.8438 60.8076ZM28.776 106.771H82.4219V92.4482H23.0469V100.912C23.0469 102.648 23.5959 104.058 24.694 105.144C25.7921 106.229 27.1528 106.771 28.776 106.771Z" fill="#299261"/>
</g>
</svg>
