<svg width="35" height="35" viewBox="0 0 35 35" fill="none" xmlns="http://www.w3.org/2000/svg">
<mask id="mask0_3421_4934" style="mask-type:alpha" maskUnits="userSpaceOnUse" x="0" y="0" width="35" height="35">
<rect width="35" height="35" fill="#D9D9D9"/>
</mask>
<g mask="url(#mask0_3421_4934)">
<path d="M8.09375 32.0834C7.03038 32.0834 6.12658 31.7112 5.38234 30.9667C4.63786 30.2225 4.26562 29.3187 4.26562 28.2553V24.7917C4.26562 24.4819 4.3705 24.222 4.58026 24.0123C4.78977 23.8028 5.04948 23.698 5.35938 23.698H8.89583V3.573C8.89583 3.44539 8.95052 3.35874 9.0599 3.31305C9.16927 3.2676 9.27257 3.29348 9.36979 3.39071L10.6823 4.70321C10.7951 4.82473 10.9266 4.8855 11.0768 4.8855C11.227 4.8855 11.3628 4.82473 11.4844 4.70321L12.8698 3.31779C12.9826 3.19626 13.1141 3.1355 13.2643 3.1355C13.4145 3.1355 13.5503 3.19626 13.6719 3.31779L15.0208 4.70321C15.1336 4.82473 15.2651 4.8855 15.4153 4.8855C15.5655 4.8855 15.7014 4.82473 15.8229 4.70321L17.2083 3.31779C17.3211 3.19626 17.4526 3.1355 17.6028 3.1355C17.753 3.1355 17.8889 3.19626 18.0104 3.31779L19.3958 4.70321C19.5086 4.82473 19.6401 4.8855 19.7903 4.8855C19.9405 4.8855 20.0764 4.82473 20.1979 4.70321L21.5833 3.31779C21.6961 3.19626 21.8276 3.1355 21.9778 3.1355C22.128 3.1355 22.2639 3.19626 22.3854 3.31779L23.7708 4.70321C23.8836 4.82473 24.0151 4.8855 24.1653 4.8855C24.3155 4.8855 24.4514 4.82473 24.5729 4.70321L25.9583 3.31779C26.0711 3.19626 26.2026 3.1355 26.3528 3.1355C26.503 3.1355 26.6389 3.19626 26.7604 3.31779L28.1458 4.70321C28.2586 4.82473 28.3901 4.8855 28.5403 4.8855C28.6905 4.8855 28.8264 4.82473 28.9479 4.70321L30.2604 3.39071C30.3576 3.29348 30.4609 3.2676 30.5703 3.31305C30.6797 3.35874 30.7344 3.44539 30.7344 3.573V28.2553C30.7344 29.3187 30.3623 30.2225 29.618 30.9667C28.8735 31.7112 27.9696 32.0834 26.9063 32.0834H8.09375ZM26.9063 29.8959C27.3924 29.8959 27.7873 29.744 28.0911 29.4402C28.395 29.1364 28.5469 28.7414 28.5469 28.2553V6.56258H11.0833V23.698H24.1719C24.4818 23.698 24.7416 23.8028 24.9514 24.0123C25.1609 24.222 25.2656 24.4819 25.2656 24.7917V28.2498C25.2656 28.7396 25.4175 29.1364 25.7214 29.4402C26.0252 29.744 26.4201 29.8959 26.9063 29.8959ZM14.1094 10.1355H20.6719C20.9818 10.1355 21.2416 10.241 21.4514 10.452C21.6609 10.6627 21.7656 10.924 21.7656 11.2358C21.7656 11.5474 21.6609 11.8065 21.4514 12.0131C21.2416 12.2197 20.9818 12.323 20.6719 12.323H14.1094C13.7995 12.323 13.5398 12.2175 13.3303 12.0065C13.1205 11.7958 13.0156 11.5345 13.0156 11.2227C13.0156 10.9111 13.1205 10.652 13.3303 10.4454C13.5398 10.2388 13.7995 10.1355 14.1094 10.1355ZM14.1094 15.0209H20.6719C20.9818 15.0209 21.2416 15.1264 21.4514 15.3374C21.6609 15.5481 21.7656 15.8094 21.7656 16.1212C21.7656 16.4328 21.6609 16.6919 21.4514 16.8985C21.2416 17.1051 20.9818 17.2084 20.6719 17.2084H14.1094C13.7995 17.2084 13.5398 17.1029 13.3303 16.892C13.1205 16.6812 13.0156 16.4199 13.0156 16.1081C13.0156 15.7965 13.1205 15.5374 13.3303 15.3308C13.5398 15.1242 13.7995 15.0209 14.1094 15.0209ZM25.1562 12.323C24.8646 12.323 24.6094 12.2136 24.3906 11.9949C24.1719 11.7761 24.0625 11.5209 24.0625 11.2292C24.0625 10.9376 24.1719 10.6824 24.3906 10.4636C24.6094 10.2449 24.8646 10.1355 25.1562 10.1355C25.4479 10.1355 25.7031 10.2449 25.9219 10.4636C26.1406 10.6824 26.25 10.9376 26.25 11.2292C26.25 11.5209 26.1406 11.7761 25.9219 11.9949C25.7031 12.2136 25.4479 12.323 25.1562 12.323ZM25.1562 17.0261C24.8646 17.0261 24.6094 16.9167 24.3906 16.698C24.1719 16.4792 24.0625 16.224 24.0625 15.9324C24.0625 15.6407 24.1719 15.3855 24.3906 15.1667C24.6094 14.948 24.8646 14.8386 25.1562 14.8386C25.4479 14.8386 25.7031 14.948 25.9219 15.1667C26.1406 15.3855 26.25 15.6407 26.25 15.9324C26.25 16.224 26.1406 16.4792 25.9219 16.698C25.7031 16.9167 25.4479 17.0261 25.1562 17.0261ZM8.05729 29.8959H23.0781V25.8855H6.45312V28.2553C6.45312 28.7414 6.60686 29.1364 6.91432 29.4402C7.22179 29.744 7.60278 29.8959 8.05729 29.8959Z" fill="white"/>
</g>
</svg>
