<svg width="35" height="35" viewBox="0 0 35 35" fill="none" xmlns="http://www.w3.org/2000/svg">
<mask id="mask0_3850_11147" style="mask-type:alpha" maskUnits="userSpaceOnUse" x="0" y="0" width="35" height="35">
<rect width="35" height="35" fill="white"/>
</mask>
<g mask="url(#mask0_3850_11147)">
<path d="M30.625 10.2083V27.7083C30.625 28.5104 30.3394 29.197 29.7682 29.7682C29.197 30.3394 28.5104 30.625 27.7083 30.625H7.29167C6.48958 30.625 5.80295 30.3394 5.23177 29.7682C4.66059 29.197 4.375 28.5104 4.375 27.7083V7.29167C4.375 6.48958 4.66059 5.80295 5.23177 5.23177C5.80295 4.66059 6.48958 4.375 7.29167 4.375H24.7917L30.625 10.2083ZM27.7083 11.4479L23.5521 7.29167H7.29167V27.7083H27.7083V11.4479ZM20.599 24.974C21.4497 24.1233 21.875 23.0903 21.875 21.875C21.875 20.6597 21.4497 19.6267 20.599 18.776C19.7483 17.9253 18.7153 17.5 17.5 17.5C16.2847 17.5 15.2517 17.9253 14.401 18.776C13.5503 19.6267 13.125 20.6597 13.125 21.875C13.125 23.0903 13.5503 24.1233 14.401 24.974C15.2517 25.8247 16.2847 26.25 17.5 26.25C18.7153 26.25 19.7483 25.8247 20.599 24.974ZM8.75 14.5833H21.875V8.75H8.75V14.5833Z" fill="white"/>
</g>
</svg>
