<svg width="35" height="35" viewBox="0 0 35 35" fill="none" xmlns="http://www.w3.org/2000/svg">
<mask id="mask0_3421_4966" style="mask-type:alpha" maskUnits="userSpaceOnUse" x="0" y="0" width="35" height="35">
<rect width="35" height="35" fill="#D9D9D9"/>
</mask>
<g mask="url(#mask0_3421_4966)">
<path d="M8.02087 32.0833C7.43754 32.0833 6.92712 31.8645 6.48962 31.427C6.05212 30.9895 5.83337 30.4791 5.83337 29.8958V5.10413C5.83337 4.52079 6.05212 4.01038 6.48962 3.57288C6.92712 3.13538 7.43754 2.91663 8.02087 2.91663H20.2709C20.5732 2.91663 20.8615 2.97739 21.1357 3.09892C21.4098 3.22045 21.6441 3.37843 21.8386 3.57288L28.5105 10.2448C28.7049 10.4392 28.8629 10.6735 28.9844 10.9477C29.1059 11.2218 29.1667 11.5101 29.1667 11.8125V18.4479C29.1667 18.7638 29.0612 19.0191 28.8503 19.2135C28.6395 19.4079 28.3782 19.5052 28.0664 19.5052C27.7548 19.5052 27.4957 19.4003 27.2891 19.1905C27.0825 18.981 26.9792 18.7213 26.9792 18.4114V11.8854H22.2761C21.6745 11.8854 21.1596 11.6711 20.7313 11.2426C20.3028 10.8144 20.0886 10.2994 20.0886 9.69788V5.10413H8.02087V29.8958H19.724C20.0339 29.8958 20.2937 30.0013 20.5035 30.2123C20.713 30.423 20.8177 30.6843 20.8177 30.9961C20.8177 31.3077 20.713 31.5668 20.5035 31.7734C20.2937 31.98 20.0339 32.0833 19.724 32.0833H8.02087ZM26.25 27.8177L23.9532 30.0781C23.7344 30.2725 23.478 30.3758 23.1839 30.388C22.8898 30.4001 22.6358 30.2968 22.4219 30.0781C22.2032 29.8593 22.0938 29.6041 22.0938 29.3125C22.0938 29.0208 22.2032 28.7656 22.4219 28.5468L24.7188 26.25L22.4219 23.9531C22.2032 23.7343 22.0938 23.4791 22.0938 23.1875C22.0938 22.8958 22.2032 22.6406 22.4219 22.4218C22.6407 22.2031 22.8959 22.0937 23.1875 22.0937C23.4792 22.0937 23.7344 22.2031 23.9532 22.4218L26.25 24.7187L28.5469 22.4218C28.7657 22.2031 29.0209 22.0937 29.3125 22.0937C29.6042 22.0937 29.8594 22.2031 30.0782 22.4218C30.2969 22.6406 30.4002 22.8958 30.3881 23.1875C30.3759 23.4791 30.2726 23.7343 30.0782 23.9531L27.8177 26.25L30.0782 28.5468C30.2726 28.7656 30.3759 29.022 30.3881 29.3161C30.4002 29.6102 30.2969 29.8642 30.0782 30.0781C29.8594 30.2968 29.6042 30.4001 29.3125 30.388C29.0209 30.3758 28.7657 30.2725 28.5469 30.0781L26.25 27.8177Z" fill="white"/>
</g>
</svg>
