<svg width="35" height="35" viewBox="0 0 35 35" fill="none" xmlns="http://www.w3.org/2000/svg">
<path d="M28.3386 18.9291C28.3969 18.4625 28.4407 17.9958 28.4407 17.5C28.4407 17.0041 28.3969 16.5375 28.3386 16.0708L31.4157 13.6645C31.6928 13.4458 31.7657 13.052 31.5907 12.7312L28.674 7.68538C28.5428 7.45204 28.2949 7.32079 28.0324 7.32079C27.9449 7.32079 27.8574 7.33538 27.7844 7.36454L24.1532 8.82288C23.3949 8.23954 22.5782 7.75829 21.6886 7.39371L21.1344 3.52913C21.0907 3.17913 20.7844 2.91663 20.4199 2.91663H14.5865C14.2219 2.91663 13.9157 3.17913 13.8719 3.52913L13.3178 7.39371C12.4282 7.75829 11.6115 8.25413 10.8532 8.82288L7.22193 7.36454C7.13443 7.33538 7.04693 7.32079 6.95943 7.32079C6.71152 7.32079 6.4636 7.45204 6.33235 7.68538L3.41568 12.7312C3.2261 13.052 3.3136 13.4458 3.59068 13.6645L6.66777 16.0708C6.60943 16.5375 6.56568 17.0187 6.56568 17.5C6.56568 17.9812 6.60943 18.4625 6.66777 18.9291L3.59068 21.3354C3.3136 21.5541 3.24068 21.9479 3.41568 22.2687L6.33235 27.3145C6.4636 27.5479 6.71152 27.6791 6.97402 27.6791C7.06152 27.6791 7.14902 27.6645 7.22193 27.6354L10.8532 26.177C11.6115 26.7604 12.4282 27.2416 13.3178 27.6062L13.8719 31.4708C13.9157 31.8208 14.2219 32.0833 14.5865 32.0833H20.4199C20.7844 32.0833 21.0907 31.8208 21.1344 31.4708L21.6886 27.6062C22.5782 27.2416 23.3949 26.7458 24.1532 26.177L27.7844 27.6354C27.8719 27.6645 27.9594 27.6791 28.0469 27.6791C28.2949 27.6791 28.5428 27.5479 28.674 27.3145L31.5907 22.2687C31.7657 21.9479 31.6928 21.5541 31.4157 21.3354L28.3386 18.9291ZM25.4511 16.4354C25.5094 16.8875 25.524 17.1937 25.524 17.5C25.524 17.8062 25.4949 18.127 25.4511 18.5645L25.2469 20.2125L26.5449 21.2333L28.1199 22.4583L27.099 24.2229L25.2469 23.4791L23.7303 22.8666L22.4178 23.8583C21.7907 24.325 21.1928 24.675 20.5949 24.9229L19.049 25.55L18.8157 27.1979L18.524 29.1666H16.4824L15.9719 25.55L14.4261 24.9229C13.799 24.6604 13.2157 24.325 12.6324 23.8875L11.3053 22.8666L9.75943 23.4937L7.90735 24.2375L6.88652 22.4729L8.46152 21.2479L9.75943 20.227L9.55527 18.5791C9.51152 18.127 9.48235 17.7916 9.48235 17.5C9.48235 17.2083 9.51152 16.8729 9.55527 16.4354L9.75943 14.7875L8.46152 13.7666L6.88652 12.5416L7.90735 10.777L9.75943 11.5208L11.2761 12.1333L12.5886 11.1416C13.2157 10.675 13.8136 10.325 14.4115 10.077L15.9574 9.44996L16.1907 7.80204L16.4824 5.83329H18.5094L19.0199 9.44996L20.5657 10.077C21.1928 10.3395 21.7761 10.675 22.3594 11.1125L23.6865 12.1333L25.2324 11.5062L27.0844 10.7625L28.1053 12.527L26.5449 13.7666L25.2469 14.7875L25.4511 16.4354ZM17.5032 11.6666C14.2803 11.6666 11.6699 14.277 11.6699 17.5C11.6699 20.7229 14.2803 23.3333 17.5032 23.3333C20.7261 23.3333 23.3365 20.7229 23.3365 17.5C23.3365 14.277 20.7261 11.6666 17.5032 11.6666ZM17.5032 20.4166C15.899 20.4166 14.5865 19.1041 14.5865 17.5C14.5865 15.8958 15.899 14.5833 17.5032 14.5833C19.1074 14.5833 20.4199 15.8958 20.4199 17.5C20.4199 19.1041 19.1074 20.4166 17.5032 20.4166Z" fill="white"/>
</svg>
