<svg width="125" height="125" viewBox="0 0 125 125" fill="none" xmlns="http://www.w3.org/2000/svg">
<mask id="mask0_3421_7761" style="mask-type:alpha" maskUnits="userSpaceOnUse" x="0" y="0" width="125" height="125">
<rect width="125" height="125" fill="#D9D9D9"/>
</mask>
<g mask="url(#mask0_3421_7761)">
<path d="M28.6459 93.75C26.5625 93.75 24.7396 92.9471 23.1771 91.3411C21.6146 89.7352 20.8334 87.934 20.8334 85.9375V23.4375C20.8334 21.3542 21.6146 19.5313 23.1771 17.9688C24.7396 16.4063 26.5625 15.625 28.6459 15.625H111.979C114.063 15.625 115.885 16.4063 117.448 17.9688C119.01 19.5313 119.792 21.3542 119.792 23.4375V85.9375C119.792 87.934 119.01 89.7352 117.448 91.3411C115.885 92.9471 114.063 93.75 111.979 93.75H28.6459ZM67.8386 65.625L28.6459 33.0729V85.9375H111.979V33.0729L72.7865 65.625C72.092 66.2326 71.2674 66.5365 70.3125 66.5365C69.3577 66.5365 68.533 66.2326 67.8386 65.625ZM70.3125 57.4219L111.328 23.4375H29.2969L70.3125 57.4219ZM13.0209 109.375C10.9375 109.375 9.11462 108.572 7.55212 106.966C5.98962 105.36 5.20837 103.559 5.20837 101.562V32.6823C5.20837 31.5755 5.58511 30.6476 6.33858 29.8984C7.09119 29.1502 8.02435 28.776 9.13806 28.776C10.2509 28.776 11.1763 29.1502 11.9141 29.8984C12.6519 30.6476 13.0209 31.5755 13.0209 32.6823V101.562H102.865C103.971 101.562 104.899 101.939 105.648 102.693C106.397 103.445 106.771 104.378 106.771 105.492C106.771 106.605 106.397 107.53 105.648 108.268C104.899 109.006 103.971 109.375 102.865 109.375H13.0209Z" fill="#299261"/>
</g>
</svg>
