<svg width="125" height="125" viewBox="0 0 125 125" fill="none" xmlns="http://www.w3.org/2000/svg">
<g>
<path d="M28.6458 93.75C26.5624 93.75 24.7395 92.9471 23.177 91.3411C21.6145 89.7352 20.8333 87.934 20.8333 85.9375V23.4375C20.8333 21.3542 21.6145 19.5313 23.177 17.9688C24.7395 16.4063 26.5624 15.625 28.6458 15.625H111.979C114.062 15.625 115.885 16.4063 117.448 17.9688C119.01 19.5313 119.792 21.3542 119.792 23.4375V85.9375C119.792 87.934 119.01 89.7352 117.448 91.3411C115.885 92.9471 114.062 93.75 111.979 93.75H28.6458ZM67.8385 65.625L28.6458 33.0729V85.9375H111.979V33.0729L72.7864 65.625C72.0919 66.2326 71.2673 66.5365 70.3124 66.5365C69.3576 66.5365 68.5329 66.2326 67.8385 65.625ZM70.3124 57.4219L111.328 23.4375H29.2968L70.3124 57.4219ZM13.0208 109.375C10.9374 109.375 9.1145 108.572 7.552 106.966C5.9895 105.36 5.20825 103.559 5.20825 101.562V32.6823C5.20825 31.5755 5.58499 30.6476 6.33846 29.8984C7.09106 29.1502 8.02422 28.776 9.13794 28.776C10.2508 28.776 11.1761 29.1502 11.914 29.8984C12.6518 30.6476 13.0208 31.5755 13.0208 32.6823V101.562H102.864C103.971 101.562 104.899 101.939 105.648 102.693C106.397 103.445 106.771 104.378 106.771 105.492C106.771 106.605 106.397 107.53 105.648 108.268C104.899 109.006 103.971 109.375 102.864 109.375H13.0208Z" fill="#299261"/>
</g>
</svg>
