<svg width="125" height="125" viewBox="0 0 125 125" fill="none" xmlns="http://www.w3.org/2000/svg">
<mask id="mask0_3762_11139" style="mask-type:alpha" maskUnits="userSpaceOnUse" x="0" y="0" width="125" height="125">
<rect width="125" height="125" fill="#D9D9D9"/>
</mask>
<g mask="url(#mask0_3762_11139)">
<path d="M56.9007 68.6173L47.3955 58.7215C46.6143 57.8535 45.6594 57.4194 44.5309 57.4194C43.4025 57.4194 42.4042 57.8101 41.5361 58.5913C40.6681 59.4594 40.2341 60.4576 40.2341 61.5861C40.2341 62.7146 40.6681 63.7128 41.5361 64.5809L54.1663 77.0809C54.9476 77.8621 55.8591 78.2528 56.9007 78.2528C57.9424 78.2528 58.8538 77.8621 59.6351 77.0809L83.4632 53.383C84.2445 52.6017 84.6351 51.6469 84.6351 50.5184C84.6351 49.3899 84.2011 48.4351 83.333 47.6538C82.5518 46.9594 81.6186 46.6338 80.5335 46.6772C79.4485 46.7206 78.5587 47.0896 77.8643 47.784L56.9007 68.6173ZM43.2288 114.06L35.1559 100.258L19.0101 97.0028C18.0552 96.8292 17.2523 96.3083 16.6012 95.4403C15.9502 94.5722 15.7115 93.6607 15.8851 92.7059L17.708 77.0809L7.42155 65.1017C6.72711 64.4073 6.37988 63.5392 6.37988 62.4976C6.37988 61.4559 6.72711 60.5878 7.42155 59.8934L17.708 48.0444L15.8851 32.4194C15.7115 31.4646 15.9502 30.5531 16.6012 29.6851C17.2523 28.817 18.0552 28.2962 19.0101 28.1226L35.1559 24.8673L43.2288 10.935C43.7497 10.067 44.4875 9.45935 45.4424 9.11213C46.3972 8.76491 47.3521 8.80831 48.307 9.24234L62.4997 15.883L76.6924 9.24234C77.6473 8.80831 78.6021 8.74321 79.557 9.04703C80.5118 9.35085 81.2497 9.93679 81.7705 10.8048L89.9736 24.8673L105.989 28.1226C106.944 28.2962 107.747 28.817 108.398 29.6851C109.049 30.5531 109.288 31.4646 109.114 32.4194L107.291 48.0444L117.578 59.8934C118.272 60.5878 118.619 61.4559 118.619 62.4976C118.619 63.5392 118.272 64.4073 117.578 65.1017L107.291 77.0809L109.114 92.7059C109.288 93.6607 109.049 94.5722 108.398 95.4403C107.747 96.3083 106.944 96.8292 105.989 97.0028L89.9736 100.258L81.7705 114.19C81.2497 115.058 80.5118 115.644 79.557 115.948C78.6021 116.252 77.6473 116.187 76.6924 115.753L62.4997 109.112L48.307 115.753C47.3521 116.187 46.3972 116.23 45.4424 115.883C44.4875 115.536 43.7497 114.928 43.2288 114.06ZM48.5674 106.899L62.4997 101.039L76.8226 106.899L85.5466 93.8778L100.781 89.9715L99.2184 74.4767L109.765 62.4976L99.2184 50.258L100.781 34.7632L85.5466 31.1173L76.5622 18.0965L62.4997 23.9559L48.1768 18.0965L39.4528 31.1173L24.2184 34.7632L25.7809 50.258L15.2341 62.4976L25.7809 74.4767L24.2184 90.2319L39.4528 93.8778L48.5674 106.899Z" fill="#299261"/>
</g>
</svg>
